<svg width="14" height="14" viewBox="0 0 14 14" fill="none" xmlns="http://www.w3.org/2000/svg">
<path d="M12.9225 0.000127726H10.3982C10.3375 -0.00192854 10.2786 0.0209189 10.2356 0.0631867C10.1927 0.105455 10.1695 0.163373 10.1717 0.223119V0.730676C7.58805 0.728277 4.07366 0.725878 2.29772 0.729876C1.6184 0.731475 1.05461 1.24783 1.05461 1.88093V1.90138C1.05751 2.18195 1.1676 2.45109 1.36283 2.65535C0.891388 2.81768 0.557175 3.24104 0.557175 3.73763C0.561584 4.04447 0.693134 4.33623 0.921317 4.54529C0.520054 4.73538 0.252776 5.12413 0.252776 5.57171V5.5933C0.251732 5.911 0.388735 6.21407 0.629099 6.42598C0.255677 6.62429 0 6.99865 0 7.42704C0 8.06129 0.551955 8.57764 1.23244 8.5781L5.15576 8.58221L5.07989 11.2599C5.07989 11.2635 5.07954 11.2669 5.07966 11.2704C5.09543 12.1954 5.79797 12.969 6.72972 13.0875L7.25801 13.1684C7.32356 13.1784 7.39026 13.1611 7.44223 13.1205C7.49408 13.08 7.52645 13.02 7.53144 12.9549L7.75092 10.1211C7.77795 9.77336 7.89964 9.4391 8.10335 9.15374C8.23292 8.96924 8.39533 8.80931 8.58291 8.68194C8.66006 8.63019 8.75135 8.57444 8.84195 8.51549C9.26074 8.24292 9.78578 7.90387 10.1718 7.51569V8.32392C10.1718 8.45323 10.2671 8.56884 10.3983 8.56884H12.9226C13.0581 8.5645 13.1668 8.45735 13.1712 8.32392V0.223119C13.1712 0.0939166 13.0537 0.000127726 12.9225 0.000127726ZM8.5799 8.12514C8.48779 8.185 8.39835 8.24144 8.31854 8.2949C8.08316 8.45403 7.87899 8.65395 7.71612 8.88482C7.46311 9.23907 7.31172 9.65398 7.27808 10.0858L7.07786 12.6672L6.80002 12.6246C6.79782 12.6243 6.79561 12.624 6.79341 12.6237C6.09784 12.5334 5.57233 11.9581 5.55482 11.2675L5.63672 8.35499C5.63857 8.29193 5.61433 8.23081 5.56967 8.18546C5.525 8.14022 5.46364 8.11463 5.39949 8.11452L1.23128 8.11018C0.812504 8.10995 0.471911 7.80951 0.471911 7.43287C0.471911 7.05623 0.812736 6.75567 1.23175 6.75567H1.43371C1.44694 6.75567 1.4604 6.75624 1.47374 6.75624C1.4807 6.75612 1.48522 6.75567 1.49091 6.75567H3.12032C3.25152 6.75567 3.3579 6.65091 3.3579 6.52171C3.3579 6.39251 3.25152 6.28775 3.12032 6.28775H1.44183C1.03767 6.25851 0.727936 5.96023 0.727936 5.5933V5.57171C0.727936 5.19507 1.05507 4.884 1.47408 4.884H2.96487C3.09608 4.884 3.20245 4.77925 3.20245 4.65004C3.20245 4.52084 3.09608 4.41609 2.96487 4.41609H1.79519C1.37618 4.41609 1.03523 4.10662 1.03523 3.72781C1.03523 3.35105 1.37618 3.04158 1.79519 3.04158H2.89875C3.02995 3.04158 3.13633 2.93683 3.13633 2.80762C3.13633 2.67842 3.02995 2.57367 2.89875 2.57367H2.30109C1.88208 2.57367 1.52977 2.27791 1.52977 1.90127V1.88082C1.52977 1.50509 1.88092 1.19859 2.29888 1.19768C4.07424 1.19357 7.58805 1.19608 10.1717 1.19848V6.73145C9.93415 7.24574 9.15192 7.75296 8.5799 8.12514ZM12.696 8.10093H10.6469V0.468044H12.696V8.10093Z" fill="currentColor"/>
</svg>
