<svg width="14" height="14" viewBox="0 0 14 14" fill="none" xmlns="http://www.w3.org/2000/svg">
<path d="M12.2102 1.29386C11.5606 0.459492 10.6593 0 9.67258 0C8.28477 0 7.40613 0.938202 6.91345 1.72528C6.78562 1.92952 6.67688 2.13431 6.58559 2.32702C6.49429 2.13431 6.38557 1.92952 6.25772 1.72528C5.76504 0.938202 4.8864 0 3.49859 0C2.51183 0 1.61061 0.459521 0.960955 1.29389C0.341293 2.08982 0 3.15579 0 4.29543C0 5.53598 0.427883 6.6898 1.34657 7.92653C2.16764 9.03187 3.34885 10.1712 4.71667 11.4906C5.22636 11.9822 5.75344 12.4906 6.31457 13.0463L6.33142 13.0631C6.40417 13.1352 6.49488 13.1712 6.58559 13.1712C6.67629 13.1712 6.767 13.1351 6.83975 13.0631L6.8566 13.0463C7.41774 12.4906 7.94481 11.9822 8.45458 11.4905C9.82232 10.1713 11.0035 9.0319 11.8246 7.92653C12.7433 6.68977 13.1712 5.53598 13.1712 4.29543C13.1712 3.15579 12.8299 2.08981 12.2102 1.29386ZM7.95397 10.8257C7.51459 11.2495 7.0624 11.6856 6.58559 12.1548C6.1088 11.6857 5.65658 11.2495 5.21712 10.8256C2.54021 8.24357 0.771748 6.53777 0.771748 4.29543C0.771748 3.36859 1.04456 2.50773 1.53995 1.87145C2.04102 1.22796 2.73659 0.873559 3.49859 0.873559C4.55663 0.873559 5.24058 1.61137 5.628 2.23031C5.97552 2.78543 6.15685 3.34503 6.2187 3.55984C6.27043 3.73965 6.41853 3.86133 6.58559 3.86133C6.75264 3.86133 6.90074 3.73965 6.95247 3.55984C7.01432 3.34503 7.19565 2.78543 7.54317 2.23028C7.93059 1.61137 8.61454 0.873559 9.67258 0.873559C10.4346 0.873559 11.1302 1.22796 11.6312 1.87145C12.1266 2.50773 12.3994 3.36859 12.3994 4.29543C12.3994 6.53777 10.631 8.24357 7.95397 10.8257Z" fill="currentColor"/>
</svg>
