<svg width="20" height="20" viewBox="0 0 20 20" fill="none" xmlns="http://www.w3.org/2000/svg">
<path d="M16.1654 12.5006C16.0544 12.752 16.0213 13.0308 16.0704 13.3011C16.1194 13.5715 16.2482 13.8209 16.4404 14.0173L16.4904 14.0673C16.6453 14.2221 16.7683 14.4059 16.8521 14.6082C16.936 14.8106 16.9792 15.0275 16.9792 15.2465C16.9792 15.4655 16.936 15.6824 16.8521 15.8847C16.7683 16.087 16.6453 16.2709 16.4904 16.4256C16.3356 16.5806 16.1518 16.7035 15.9494 16.7874C15.7471 16.8713 15.5302 16.9145 15.3112 16.9145C15.0922 16.9145 14.8753 16.8713 14.673 16.7874C14.4706 16.7035 14.2868 16.5806 14.132 16.4256L14.082 16.3756C13.8856 16.1835 13.6362 16.0547 13.3659 16.0056C13.0955 15.9566 12.8167 15.9897 12.5654 16.1006C12.3189 16.2063 12.1087 16.3817 11.9606 16.6053C11.8126 16.8288 11.7331 17.0908 11.732 17.359V17.5006C11.732 17.9427 11.5564 18.3666 11.2439 18.6792C10.9313 18.9917 10.5074 19.1673 10.0654 19.1673C9.62334 19.1673 9.19941 18.9917 8.88685 18.6792C8.57429 18.3666 8.3987 17.9427 8.3987 17.5006V17.4256C8.39225 17.1498 8.30296 16.8823 8.14246 16.6579C7.98195 16.4335 7.75764 16.2626 7.4987 16.1673C7.24735 16.0564 6.96854 16.0233 6.69821 16.0723C6.42788 16.1213 6.17843 16.2502 5.98203 16.4423L5.93203 16.4923C5.77724 16.6473 5.59343 16.7702 5.3911 16.8541C5.18877 16.938 4.97189 16.9811 4.75286 16.9811C4.53384 16.9811 4.31696 16.938 4.11463 16.8541C3.9123 16.7702 3.72849 16.6473 3.5737 16.4923C3.41874 16.3375 3.29581 16.1537 3.21193 15.9514C3.12806 15.7491 3.08489 15.5322 3.08489 15.3131C3.08489 15.0941 3.12806 14.8772 3.21193 14.6749C3.29581 14.4726 3.41874 14.2888 3.5737 14.134L3.6237 14.084C3.81581 13.8876 3.94469 13.6381 3.9937 13.3678C4.04272 13.0975 4.00963 12.8187 3.8987 12.5673C3.79306 12.3208 3.61766 12.1106 3.39409 11.9626C3.17051 11.8145 2.90852 11.7351 2.64036 11.734H2.4987C2.05667 11.734 1.63275 11.5584 1.32019 11.2458C1.00763 10.9333 0.832031 10.5093 0.832031 10.0673C0.832031 9.62529 1.00763 9.20137 1.32019 8.88881C1.63275 8.57625 2.05667 8.40065 2.4987 8.40065H2.5737C2.84953 8.3942 3.11703 8.30492 3.34145 8.14441C3.56586 7.9839 3.73679 7.7596 3.83203 7.50065C3.94296 7.2493 3.97605 6.97049 3.92703 6.70016C3.87802 6.42983 3.74914 6.18038 3.55703 5.98398L3.50703 5.93398C3.35207 5.7792 3.22914 5.59538 3.14526 5.39305C3.06139 5.19072 3.01822 4.97384 3.01822 4.75482C3.01822 4.53579 3.06139 4.31891 3.14526 4.11658C3.22914 3.91425 3.35207 3.73044 3.50703 3.57565C3.66182 3.42069 3.84563 3.29776 4.04796 3.21388C4.25029 3.13001 4.46717 3.08684 4.6862 3.08684C4.90522 3.08684 5.1221 3.13001 5.32443 3.21388C5.52676 3.29776 5.71058 3.42069 5.86536 3.57565L5.91536 3.62565C6.11176 3.81776 6.36121 3.94664 6.63154 3.99565C6.90187 4.04467 7.18068 4.01158 7.43203 3.90065H7.4987C7.74517 3.79501 7.95538 3.61961 8.10344 3.39604C8.2515 3.17246 8.33096 2.91047 8.33203 2.64232V2.50065C8.33203 2.05862 8.50763 1.6347 8.82019 1.32214C9.13275 1.00958 9.55667 0.833984 9.9987 0.833984C10.4407 0.833984 10.8646 1.00958 11.1772 1.32214C11.4898 1.6347 11.6654 2.05862 11.6654 2.50065V2.57565C11.6664 2.84381 11.7459 3.1058 11.894 3.32937C12.042 3.55295 12.2522 3.72835 12.4987 3.83398C12.75 3.94491 13.0289 3.978 13.2992 3.92899C13.5695 3.87997 13.819 3.7511 14.0154 3.55898L14.0654 3.50898C14.2202 3.35402 14.404 3.23109 14.6063 3.14722C14.8086 3.06334 15.0255 3.02017 15.2445 3.02017C15.4636 3.02017 15.6804 3.06334 15.8828 3.14722C16.0851 3.23109 16.2689 3.35402 16.4237 3.50898C16.5787 3.66377 16.7016 3.84759 16.7855 4.04992C16.8693 4.25225 16.9125 4.46912 16.9125 4.68815C16.9125 4.90718 16.8693 5.12405 16.7855 5.32638C16.7016 5.52871 16.5787 5.71253 16.4237 5.86732L16.3737 5.91732C16.1816 6.11372 16.0527 6.36316 16.0037 6.63349C15.9547 6.90382 15.9878 7.18264 16.0987 7.43398V7.50065C16.2043 7.74712 16.3797 7.95733 16.6033 8.10539C16.8269 8.25346 17.0889 8.33291 17.357 8.33398H17.4987C17.9407 8.33398 18.3646 8.50958 18.6772 8.82214C18.9898 9.1347 19.1654 9.55862 19.1654 10.0007C19.1654 10.4427 18.9898 10.8666 18.6772 11.1792C18.3646 11.4917 17.9407 11.6673 17.4987 11.6673H17.4237C17.1555 11.6684 16.8936 11.7478 16.67 11.8959C16.4464 12.044 16.271 12.2542 16.1654 12.5006V12.5006Z" stroke="#092C9E" stroke-width="1.5" stroke-linecap="round" stroke-linejoin="round"/>
<path d="M10 12.5C11.3807 12.5 12.5 11.3807 12.5 10C12.5 8.61929 11.3807 7.5 10 7.5C8.61929 7.5 7.5 8.61929 7.5 10C7.5 11.3807 8.61929 12.5 10 12.5Z" fill="#F4F7FF" stroke="#092C9E" stroke-width="1.5" stroke-linecap="round" stroke-linejoin="round"/>
</svg>
