<svg width="404" height="316" viewBox="0 0 404 316" fill="none" xmlns="http://www.w3.org/2000/svg">
<g opacity="0.5">
<path d="M319.833 39.5H84.1667C65.5731 39.5 50.5 51.2898 50.5 65.8333V250.167C50.5 264.71 65.5731 276.5 84.1667 276.5H319.833C338.427 276.5 353.5 264.71 353.5 250.167V65.8333C353.5 51.2898 338.427 39.5 319.833 39.5Z" stroke="#18A0FB" stroke-width="1.5" stroke-linecap="round" stroke-linejoin="round"/>
<path d="M143.084 131.666C157.029 131.666 168.334 122.824 168.334 111.916C168.334 101.008 157.029 92.166 143.084 92.166C129.139 92.166 117.834 101.008 117.834 111.916C117.834 122.824 129.139 131.666 143.084 131.666Z" stroke="#18A0FB" stroke-width="1.5" stroke-linecap="round" stroke-linejoin="round"/>
<path d="M353.499 197.499L269.333 131.666L84.166 276.499" stroke="#18A0FB" stroke-width="1.5" stroke-linecap="round" stroke-linejoin="round"/>
</g>
</svg>
