<svg width="40" height="40" viewBox="0 0 40 40" fill="none" xmlns="http://www.w3.org/2000/svg">
<path d="M26.1 28.7L25 28.5L22.8 28.1V24.5C24.5 23.5 25.7 21.7 25.7 19.6H26.8C28 19.6 28.9 18.6 28.9 17.5C28.9 16.9 28.7 16.4 28.3 16C28.2 15.9 28.2 15.9 28.1 15.8V14.3C28.1 9.79995 24.5 6.19995 20 6.19995C15.5 6.19995 11.9 9.79995 11.9 14.3V15.8C11.8 15.9 11.8 15.9 11.7 16C11.3 16.4 11.1 16.9 11.1 17.5C11.1 18.6 12 19.6 13.2 19.6H14.3C14.3 21.7 15.5 23.6 17.2 24.5V28.1L15 28.5L13.9 28.7C10.8 29.2 8.5 31.8999 8.5 35.0999C11.3 37.1999 14.7 38.6 18.4 38.9C18.9 38.9 19.5 39 20 39C20.6 39 21.1 39 21.6 38.9C25.3 38.6 28.7 37.1999 31.5 35.0999C31.5 31.8999 29.2 29.3 26.1 28.7Z" fill="white" stroke="#1D4289" stroke-width="1.5" stroke-miterlimit="10" stroke-linecap="round" stroke-linejoin="round"/>
<path d="M28.2 14.3V15.8C27.8 15.5 27.4 15.4 26.9 15.4H26C25.9 15.4 25.9 15.4 25.8 15.4C25.5 15.4 25.3 15.3 25 15.3C24.6 15.2 24.2 14.9 23.8 14.6C23.6 14.4 23.4 14.2 23.3 13.9C23.1 13.6 23 13.3 22.9 13C22.7 14.4 21.5 15.5 20 15.5H13.1C12.6 15.5 12.2 15.7 11.8 15.9V14.4C11.8 9.90001 15.5 6.30001 19.9 6.30001C24.5 6.20001 28.2 9.80001 28.2 14.3Z" fill="#F6BE00" stroke="#1D4289" stroke-width="1.5" stroke-miterlimit="10" stroke-linecap="round" stroke-linejoin="round"/>
<path d="M31.5 35.1C28.7 37.2 25.3 38.6 21.6 38.9C21.1 39 20.5 39 20 39C19.5 39 18.9 39 18.4 38.9C14.7 38.6 11.3 37.2 8.5 35.1C8.5 31.9 10.8 29.3 13.9 28.7L15 28.5L17.2 28.1L20.1 31.3L23 28.1L25.2 28.5L26.3 28.7C29.2 29.3 31.5 31.9 31.5 35.1Z" fill="#8CA0C4" stroke="#1D4289" stroke-width="1.5" stroke-miterlimit="10" stroke-linecap="round" stroke-linejoin="round"/>
<path d="M25.8 15.4V19.7C25.8 21.8 24.6 23.6 22.9 24.6C22.8 24.7 22.7 24.7 22.6 24.7C21.9 25.1 21 25.3 20.2 25.3H19.9C19 25.3 18.2 25.1 17.5 24.7C17.4 24.7 17.3 24.6 17.2 24.6C15.5 23.6 14.3 21.8 14.3 19.7V15.5H20C21.5 15.5 22.7 14.4 22.9 13C23 13.4 23.1 13.7 23.3 13.9C23.4 14.2 23.6 14.4 23.8 14.6C24.1 14.9 24.5 15.2 25 15.3C25.3 15.4 25.5 15.4 25.8 15.4Z" fill="white" stroke="#1D4289" stroke-width="1.5" stroke-miterlimit="10" stroke-linecap="round" stroke-linejoin="round"/>
<path d="M20 31.4L19.7 31.6L19.2 31.7999L18.1 32.4L16.1 33.2999L14.9 28.6L17.1 28.2L20 31.4Z" fill="white" stroke="#1D4289" stroke-width="1.5" stroke-miterlimit="10" stroke-linecap="round" stroke-linejoin="round"/>
<path d="M25.1 28.6L23.9 33.2999L21.9 32.4L20.8 31.7999L20.3 31.6L20 31.4L22.9 28.2L25.1 28.6Z" fill="white" stroke="#1D4289" stroke-width="1.5" stroke-miterlimit="10" stroke-linecap="round" stroke-linejoin="round"/>
<path d="M15.4 1.6C16.8 1.2 18.4 1 20 1C30.5 1 39 9.5 39 20C39 30.5 30.5 39 20 39C9.5 39 1 30.5 1 20C1 18.1 1.3 16.2 1.8 14.4" stroke="#1D4289" stroke-width="1.5" stroke-miterlimit="10"/>
<path d="M4.4 5.80002C2.6 5.40002 1.3 3.80002 1.3 1.90002H3.7V3.90002C3.6 4.70002 3.9 5.30002 4.4 5.80002Z" stroke="#1D4289" stroke-width="1.5" stroke-miterlimit="10" stroke-linecap="round" stroke-linejoin="round"/>
<path d="M12.4 1.90002C12.4 3.80002 11.1 5.40002 9.3 5.80002C9.8 5.30002 10 4.70002 10 3.90002V1.90002H12.4Z" stroke="#1D4289" stroke-width="1.5" stroke-miterlimit="10" stroke-linecap="round" stroke-linejoin="round"/>
<path d="M8.00001 6.59998V9.99998C9.10001 10.2 10 11.2 10 12.4H3.60001C3.60001 11.7 3.90001 11.1 4.30001 10.7C4.70001 10.4 5.10001 10.1 5.60001 9.99998V6.59998C5.10001 6.49998 4.70001 6.19998 4.40001 5.79998C3.90001 5.29998 3.60001 4.69998 3.60001 3.89998V1.09998H10V3.89998C10 4.59998 9.70001 5.29998 9.30001 5.79998C9.00001 6.19998 8.50001 6.49998 8.00001 6.59998Z" fill="#F6BE00" stroke="#1D4289" stroke-width="1.5" stroke-miterlimit="10" stroke-linecap="round" stroke-linejoin="round"/>
<path d="M10 12.3H3.60001C3.60001 11.6 3.90001 11 4.30001 10.6C4.70001 10.3 5.10001 10 5.60001 9.90002C5.70001 9.90002 5.90001 9.90002 6.00001 9.90002H7.60001C7.70001 9.90002 7.90001 9.90002 8.00001 9.90002C9.20001 10.2 10 11.1 10 12.3Z" fill="#F6BE00" stroke="#1D4289" stroke-width="1.5" stroke-miterlimit="10" stroke-linecap="round" stroke-linejoin="round"/>
<path d="M10 1.09998V3.89998C10 4.59998 9.70001 5.29998 9.30001 5.79998C9.00001 6.19998 8.50001 6.49998 8.00001 6.59998C7.80001 6.69998 7.50001 6.69998 7.30001 6.69998H6.40001C6.10001 6.69998 5.90001 6.69998 5.60001 6.59998C5.10001 6.49998 4.70001 6.19998 4.40001 5.79998C3.90001 5.29998 3.60001 4.69998 3.60001 3.89998V1.09998H10Z" fill="#F6BE00" stroke="#1D4289" stroke-width="1.5" stroke-miterlimit="10" stroke-linecap="round" stroke-linejoin="round"/>
</svg>
