<svg width="24" height="24" viewBox="0 0 24 24" fill="none" xmlns="http://www.w3.org/2000/svg">
<path d="M12 0C5.4 0 0 5.4 0 12C0 18.6 5.4 24 12 24C18.6 24 24 18.6 24 12C24 5.4 18.6 0 12 0ZM20.28 7.2H16.8C16.44 5.64 15.84 4.32 15.12 2.88C17.28 3.72 19.2 5.16 20.28 7.2ZM12 2.4C12.96 3.84 13.8 5.4 14.28 7.2H9.72C10.2 5.52 11.04 3.84 12 2.4ZM2.76 14.4C2.52 13.68 2.4 12.84 2.4 12C2.4 11.16 2.52 10.32 2.76 9.6H6.84C6.72 10.44 6.72 11.16 6.72 12C6.72 12.84 6.84 13.56 6.84 14.4H2.76ZM3.72 16.8H7.2C7.56 18.36 8.16 19.68 8.88 21.12C6.72 20.28 4.8 18.84 3.72 16.8ZM7.2 7.2H3.72C4.92 5.16 6.72 3.72 8.88 2.88C8.16 4.32 7.56 5.64 7.2 7.2ZM12 21.6C11.04 20.16 10.2 18.6 9.72 16.8H14.28C13.8 18.48 12.96 20.16 12 21.6ZM14.76 14.4H9.24C9.12 13.56 9 12.84 9 12C9 11.16 9.12 10.44 9.24 9.6H14.88C15 10.44 15.12 11.16 15.12 12C15.12 12.84 14.88 13.56 14.76 14.4ZM15.12 21.12C15.84 19.8 16.44 18.36 16.8 16.8H20.28C19.2 18.84 17.28 20.28 15.12 21.12ZM17.28 14.4C17.4 13.56 17.4 12.84 17.4 12C17.4 11.16 17.28 10.44 17.28 9.6H21.36C21.6 10.32 21.72 11.16 21.72 12C21.72 12.84 21.6 13.68 21.36 14.4H17.28Z" fill="#F2F3F7"/>
</svg>
