<svg width="24" height="24" viewBox="0 0 24 24" fill="none" xmlns="http://www.w3.org/2000/svg">
<g clip-path="url(#clip0_74_1714)">
<path d="M21.96 15.4799L21.8 15.6799C19.08 18.3999 14.72 18.3999 12 15.6799L7.12 20.5199L2.04 15.4799C-0.68 12.7599 -0.68 8.39994 2.04 5.67994L2.2 5.47994C4.92 2.79994 9.28 2.79994 12 5.47994C14.72 2.75994 19.08 2.75994 21.8 5.47994L21.96 5.67994C24.68 8.35994 24.68 12.7599 21.96 15.4799Z" fill="#F6BE00"/>
<path d="M15.8 11.8398C15.08 12.5598 13.96 12.5598 13.28 11.8398L12 10.5598C11.28 9.83985 10.16 9.83985 9.48 10.5598C8.76 11.2798 8.76 12.3998 9.48 13.0799L12 15.5998L7.12 20.5198L2.04 15.4799C-0.68 12.7598 -0.68 8.39985 2.04 5.67985L2.24 5.47985C4.92 2.79985 9.28 2.79985 12 5.47985L15.8 9.27985C16.52 9.99985 16.52 11.1198 15.8 11.8398Z" fill="#F6BE00"/>
<path d="M11.9995 5.47994C14.7195 2.75994 19.0794 2.75994 21.7994 5.47994L21.9994 5.67994C24.7194 8.39994 24.7194 12.7599 21.9994 15.4799L21.7994 15.6799C19.0794 18.3999 14.7195 18.3999 11.9995 15.6799L9.47945 13.1599C8.75945 12.4399 8.75945 11.3199 9.47945 10.6399C10.1995 9.91994 11.3195 9.91994 11.9995 10.6399L13.2795 11.9199C13.9995 12.6399 15.1195 12.6399 15.7995 11.9199C16.5195 11.1999 16.5195 10.0799 15.7995 9.39994L11.9995 5.47994Z" fill="#1D4289"/>
</g>
<defs>
<clipPath id="clip0_74_1714">
<rect width="24" height="24" fill="white"/>
</clipPath>
</defs>
</svg>
