<svg width="134" height="134" viewBox="0 0 134 134" fill="none" xmlns="http://www.w3.org/2000/svg">
<path d="M112.402 44.1871L119.602 46.9658L112.402 49.7446L109.602 56.8899L106.702 49.7446L99.6016 46.9658L106.702 44.1871L109.602 37.0417L112.402 44.1871Z" fill="white" stroke="#1D4289" stroke-width="1.5" stroke-miterlimit="10" stroke-linecap="round" stroke-linejoin="round"/>
<path d="M33.4 74.5552C33.4 75.4484 32.7 76.1431 31.8 76.1431H31.1C32 76.1431 32.7 76.8378 32.7 77.731C32.7 78.6242 32 79.3189 31.1 79.3189H30.4C31.3 79.3189 32 80.0136 32 80.9068C32 81.7999 31.3 82.4946 30.4 82.4946H29.7C30.6 82.4946 31.3 83.1893 31.3 84.0825C31.3 84.9757 30.6 85.6704 29.7 85.6704H19.2V73.9598C19.2 72.8681 19.7 71.8757 20.5 71.181L21.9 69.9901C22.4 69.5931 22.7 68.8984 22.7 68.2037V67.906C22.7 67.0128 23.4 66.3181 24.3 66.3181C25.2 66.3181 25.9 67.0128 25.9 67.906V68.9977C25.9 70.1886 25.4 71.3795 24.6 72.2727L23.9 72.9674H32C32.7 73.0666 33.4 73.7613 33.4 74.5552Z" fill="white" stroke="#1D4289" stroke-width="1.5" stroke-miterlimit="10" stroke-linecap="round" stroke-linejoin="round"/>
<path d="M19.3 72.2727H15.7V86.2656H19.3V72.2727Z" fill="white" stroke="#1D4289" stroke-width="1.5" stroke-miterlimit="10" stroke-linecap="round" stroke-linejoin="round"/>
<path d="M24.5 56.8899C30.0228 56.8899 34.5 52.4467 34.5 46.9658C34.5 41.4849 30.0228 37.0417 24.5 37.0417C18.9772 37.0417 14.5 41.4849 14.5 46.9658C14.5 52.4467 18.9772 56.8899 24.5 56.8899Z" fill="white" stroke="#1D4289" stroke-width="1.5" stroke-miterlimit="10" stroke-linecap="round" stroke-linejoin="round"/>
<path d="M20.1016 45.9733L23.6016 49.447L31.5016 41.6064" stroke="#1D4289" stroke-width="1.5" stroke-miterlimit="10" stroke-linecap="square"/>
<path d="M88.2984 33.3696V38.0339C88.1984 37.9347 88.1984 37.8355 88.0984 37.8355C87.8984 37.637 87.7984 37.5377 87.5984 37.3392C86.6984 36.6445 85.4984 36.2476 84.2984 36.2476H83.0984C82.8984 36.2476 82.6984 36.2476 82.4984 36.2476C82.2984 36.2476 82.1984 36.2476 82.0984 36.2476C81.3984 36.2476 80.6984 36.0491 80.0984 35.8506C78.8984 35.4536 77.8984 34.8582 77.0984 34.0642C76.4984 33.4688 76.0984 32.8733 75.6984 32.1786C75.1984 31.484 74.8984 30.69 74.6984 29.7968C74.1984 33.4688 70.9984 36.2476 67.0984 36.2476H51.7984C51.5984 36.2476 51.3984 36.2476 51.1984 36.2476H49.8984C48.6984 36.2476 47.4984 36.6445 46.5984 37.3392C46.3984 37.5377 46.1984 37.637 45.9984 37.8355C45.9984 37.8355 45.9984 37.8355 45.8984 37.9347V33.3696C45.8984 21.7582 55.2984 12.4294 66.9984 12.4294C78.8984 12.4294 88.2984 21.7582 88.2984 33.3696Z" fill="#F6BE00" stroke="#1D4289" stroke-width="1.5" stroke-miterlimit="10" stroke-linecap="round" stroke-linejoin="round"/>
<path d="M97.1016 87.0595V110.084H37.1016V87.0595C37.1016 78.9217 43.1016 71.8755 51.2016 70.5853L54.0016 70.0891L56.9016 82.3952L62.1016 79.9141L67.1016 77.5323L72.1016 79.9141L77.3016 82.3952L80.2016 70.0891L83.0016 70.5853C91.1016 71.8755 97.1016 78.8224 97.1016 87.0595Z" fill="#F6BE00" stroke="#1D4289" stroke-width="1.5" stroke-miterlimit="10" stroke-linecap="round" stroke-linejoin="round"/>
<path d="M67.1 77.5324L65.4 78.3264L62.1 79.9142L56.9 82.3953L54 70.0893L59.6 69.0969L67.1 77.5324Z" fill="white" stroke="#1D4289" stroke-width="1.5" stroke-miterlimit="10" stroke-linecap="round" stroke-linejoin="round"/>
<path d="M80.2016 70.0893L77.3016 82.3953L72.1016 79.9142L68.8016 78.3264L67.1016 77.5324L74.6016 69.0969L80.2016 70.0893Z" fill="white" stroke="#1D4289" stroke-width="1.5" stroke-miterlimit="10" stroke-linecap="round" stroke-linejoin="round"/>
<path d="M88.2984 33.3696V38.0339C88.1984 37.9347 88.1984 37.8355 88.0984 37.8355C87.8984 37.637 87.7984 37.5377 87.5984 37.3392C86.6984 36.6445 85.4984 36.2476 84.2984 36.2476H83.0984C82.8984 36.2476 82.6984 36.2476 82.4984 36.2476C82.2984 36.2476 82.1984 36.2476 82.0984 36.2476C81.3984 36.2476 80.6984 36.0491 80.0984 35.8506C78.8984 35.4536 77.8984 34.8582 77.0984 34.0642C76.4984 33.4688 76.0984 32.8733 75.6984 32.1786C75.1984 31.484 74.8984 30.69 74.6984 29.7968C74.1984 33.4688 70.9984 36.2476 67.0984 36.2476H51.7984C51.5984 36.2476 51.3984 36.2476 51.1984 36.2476H49.8984C48.6984 36.2476 47.4984 36.6445 46.5984 37.3392C46.3984 37.5377 46.1984 37.637 45.9984 37.8355C45.9984 37.8355 45.9984 37.8355 45.8984 37.9347V33.3696C45.8984 21.7582 55.2984 12.4294 66.9984 12.4294C78.8984 12.4294 88.2984 21.7582 88.2984 33.3696Z" fill="#F6BE00" stroke="#1D4289" stroke-width="1.5" stroke-miterlimit="10" stroke-linecap="round" stroke-linejoin="round"/>
<path d="M97.1016 87.0595V110.084H37.1016V87.0595C37.1016 78.9217 43.1016 71.8755 51.2016 70.5853L54.0016 70.0891L56.9016 82.3952L62.1016 79.9141L67.1016 77.5323L72.1016 79.9141L77.3016 82.3952L80.2016 70.0891L83.0016 70.5853C91.1016 71.8755 97.1016 78.8224 97.1016 87.0595Z" fill="#8CA0C4" stroke="#1D4289" stroke-width="1.5" stroke-miterlimit="10" stroke-linecap="round" stroke-linejoin="round"/>
<path d="M67.1 77.5324L65.4 78.3264L62.1 79.9142L56.9 82.3953L54 70.0893L59.6 69.0969L67.1 77.5324Z" fill="white" stroke="#1D4289" stroke-width="1.5" stroke-miterlimit="10" stroke-linecap="round" stroke-linejoin="round"/>
<path d="M80.2016 70.0893L77.3016 82.3953L72.1016 79.9142L68.8016 78.3264L67.1016 77.5324L74.6016 69.0969L80.2016 70.0893Z" fill="white" stroke="#1D4289" stroke-width="1.5" stroke-miterlimit="10" stroke-linecap="round" stroke-linejoin="round"/>
<path d="M52.1 36.2476V47.1641H50C47 47.1641 44.5 44.683 44.5 41.7058C44.5 40.2172 45.1 38.9271 46 37.9347C46 37.9347 46 37.9347 46.1 37.8354C46.3 37.6369 46.5 37.5377 46.7 37.3392C47.6 36.6445 48.8 36.2476 50 36.2476H52.1Z" fill="white" stroke="#1D4289" stroke-width="1.5" stroke-miterlimit="10" stroke-linecap="round" stroke-linejoin="round"/>
<path d="M89.7016 41.7058C89.7016 44.683 87.2016 47.1641 84.2016 47.1641H82.1016V36.2476H84.2016C85.5016 36.2476 86.6016 36.6445 87.5016 37.3392C87.7016 37.5377 87.9016 37.6369 88.0016 37.8354C88.1016 37.9347 88.1016 38.0339 88.2016 38.0339C89.2016 39.0263 89.7016 40.3164 89.7016 41.7058Z" fill="white" stroke="#1D4289" stroke-width="1.5" stroke-miterlimit="10" stroke-linecap="round" stroke-linejoin="round"/>
<path d="M64.7984 132.514C55.2984 132.216 46.2984 129.933 38.2984 126.063C26.3984 120.307 16.4984 111.176 9.89844 99.7634H37.8984C37.9984 100.26 38.1984 100.756 38.3984 101.351C40.0984 106.81 42.1984 111.772 44.6984 116.039C49.9984 125.467 56.9984 131.62 64.7984 132.514Z" fill="#8CA0C4" stroke="#1D4289" stroke-width="1.5" stroke-miterlimit="10" stroke-linecap="round" stroke-linejoin="round"/>
<path d="M123.997 99.7634C120.497 105.916 115.897 111.375 110.697 115.94C106.197 119.91 101.097 123.284 95.5969 125.964C87.4969 129.834 78.3969 132.117 68.7969 132.414C76.5969 131.521 83.6969 125.467 89.0969 115.94C91.5969 111.474 93.7969 106.313 95.5969 100.557C95.6969 100.26 95.7969 100.061 95.7969 99.7634H123.997Z" fill="#8CA0C4" stroke="#1D4289" stroke-width="1.5" stroke-miterlimit="10" stroke-linecap="round" stroke-linejoin="round"/>
<path d="M95.7984 99.7626C95.6984 100.06 95.5984 100.259 95.5984 100.557C93.7984 106.313 91.6984 111.573 89.0984 115.939H44.4984C42.0984 111.672 39.9984 106.71 38.1984 101.251C37.9984 100.755 37.8984 100.259 37.6984 99.6633H95.7984V99.7626Z" fill="#8CA0C4" stroke="#1D4289" stroke-width="1.5" stroke-miterlimit="10" stroke-linecap="round" stroke-linejoin="round"/>
<path d="M89 115.939C83.5 125.466 76.5 131.52 68.7 132.413C68.1 132.413 67.5 132.413 66.9 132.413C66.2 132.413 65.5 132.413 64.8 132.413C57 131.52 50 125.466 44.5 115.939H89Z" fill="#8CA0C4" stroke="#1D4289" stroke-width="1.5" stroke-miterlimit="10" stroke-linecap="round" stroke-linejoin="round"/>
<path d="M110.7 115.939H110.6H89" fill="#8CA0C4"/>
<path d="M110.7 115.939H110.6H89" stroke="#1D4289" stroke-width="1.5" stroke-miterlimit="10" stroke-linecap="round" stroke-linejoin="round"/>
<path d="M44.4969 115.939H23.2969" stroke="#1D4289" stroke-width="1.5" stroke-miterlimit="10" stroke-linecap="round" stroke-linejoin="round"/>
<path d="M29.7 13.0248C40.3 5.78012 53.1 1.5127 67 1.5127C103.4 1.5127 133 30.7892 133 67.0127C133 103.236 103.5 132.513 67 132.513C30.5 132.513 1 103.236 1 67.0127C1 52.6225 5.7 39.3241 13.6 28.5066" stroke="#1D4289" stroke-width="1.5" stroke-miterlimit="10" stroke-linecap="square" stroke-linejoin="round"/>
<path d="M26.9 10.5437V11.9331C26.9 14.2157 26 16.399 24.3 17.9869L23.5 18.7808C23 19.277 22.7 19.8725 22.7 20.5672V21.3611H15.2V20.6664C15.2 19.9717 14.9 19.277 14.4 18.7808L13.6 17.9869C11.9 16.399 10.9 14.2157 10.9 11.8339V10.4445C10.9 6.07783 14.5 2.50513 18.9 2.50513C21.1 2.60437 23.1 3.49755 24.5 4.98617C26 6.37556 26.9 8.3604 26.9 10.5437Z" fill="#F6BE00" stroke="#1D4289" stroke-width="1.5" stroke-miterlimit="10" stroke-linecap="round" stroke-linejoin="round"/>
<path d="M24.5 23.2468C24.5 23.743 24.3 24.2392 23.9 24.537C23.6 24.8347 23.1 25.0332 22.6 25.0332H15.1C14.1 25.0332 13.2 24.2392 13.2 23.1475C13.2 22.6513 13.4 22.1551 13.7 21.8573C14.1 21.5596 14.5 21.3611 15.1 21.3611H22.7C23.7 21.3611 24.5 22.2543 24.5 23.2468Z" fill="white" stroke="#1D4289" stroke-width="1.5" stroke-miterlimit="10" stroke-linecap="round" stroke-linejoin="round"/>
<path d="M18.8 15.3074L21.4 12.7273" stroke="#1D4289" stroke-width="1.5" stroke-miterlimit="10" stroke-linecap="round" stroke-linejoin="round"/>
<path d="M18.8 15.3074L16.1 12.7273" stroke="#1D4289" stroke-width="1.5" stroke-miterlimit="10" stroke-linecap="round" stroke-linejoin="round"/>
<path d="M18.8 21.3611V15.3074" stroke="#1D4289" stroke-width="1.5" stroke-miterlimit="10" stroke-linecap="round" stroke-linejoin="round"/>
<path d="M22.2 25.1326C22 26.7205 20.6 27.9114 18.9 27.9114C17.2 27.9114 15.8 26.7205 15.6 25.1326H22.2Z" fill="white" stroke="#1D4289" stroke-width="1.5" stroke-miterlimit="10" stroke-linecap="round" stroke-linejoin="round"/>
<path d="M111.702 76.1431V82.0974C111.502 82.0974 111.202 81.9982 111.002 81.9982H108.102C107.902 81.9982 107.602 81.9982 107.402 82.0974V76.1431C107.802 76.2423 108.302 76.3415 108.802 76.3415H110.302C110.802 76.3415 111.202 76.2423 111.702 76.1431Z" fill="white" stroke="#1D4289" stroke-width="1.5" stroke-miterlimit="10" stroke-linecap="round" stroke-linejoin="round"/>
<path d="M115.302 86.2656H103.902C103.902 85.0747 104.402 84.0823 105.102 83.2884C105.702 82.693 106.502 82.296 107.402 82.0975C107.602 82.0975 107.902 81.9983 108.102 81.9983H111.002C111.202 81.9983 111.502 81.9983 111.702 82.0975C113.702 82.3953 115.302 84.1816 115.302 86.2656Z" fill="white" stroke="#1D4289" stroke-width="1.5" stroke-miterlimit="10" stroke-linecap="round" stroke-linejoin="round"/>
<path d="M105.102 74.7537C101.902 73.9597 99.6016 71.1809 99.6016 67.8066H103.802V71.3794C103.802 72.6696 104.302 73.8605 105.102 74.7537Z" stroke="#1D4289" stroke-width="1.5" stroke-miterlimit="10" stroke-linecap="round" stroke-linejoin="round"/>
<path d="M119.5 67.8066C119.5 71.1809 117.2 73.9596 114 74.6543C114.8 73.7611 115.3 72.6695 115.3 71.3793V67.8066H119.5V67.8066Z" stroke="#1D4289" stroke-width="1.5" stroke-miterlimit="10" stroke-linecap="round" stroke-linejoin="round"/>
<path d="M115.302 66.417V71.3793C115.302 72.6695 114.802 73.7613 114.002 74.6545C113.402 75.3492 112.602 75.8454 111.702 76.0439C111.302 76.1432 110.802 76.2424 110.302 76.2424H108.802C108.302 76.2424 107.902 76.1432 107.402 76.0439C106.502 75.8454 105.702 75.25 105.102 74.6545C104.302 73.7613 103.802 72.6695 103.802 71.3793V66.417H115.302Z" fill="white" stroke="#1D4289" stroke-width="1.5" stroke-miterlimit="10" stroke-linecap="round" stroke-linejoin="round"/>
<path d="M82.1016 36.1482V47.1642C82.1016 52.6226 79.1016 57.3862 74.6016 59.8673C72.5016 61.0582 70.1016 61.7529 67.5016 61.7529H66.7016C64.1016 61.7529 61.7016 61.0582 59.6016 59.8673C55.1016 57.3862 52.1016 52.6226 52.1016 47.1642V36.2474H67.2016C71.1016 36.2474 74.2016 33.4686 74.8016 29.7966C75.0016 30.6898 75.3016 31.4838 75.8016 32.1785C76.2016 32.8732 76.6016 33.4686 77.2016 34.0641C78.0016 34.858 79.1016 35.5527 80.2016 35.8505C80.8016 36.0489 81.4016 36.1482 82.1016 36.1482Z" fill="white" stroke="#1D4289" stroke-width="1.5" stroke-miterlimit="10" stroke-linecap="round" stroke-linejoin="round"/>
<path d="M52.1016 36.2476V47.1641V36.2476Z" stroke="#1D4289" stroke-width="1.5" stroke-miterlimit="10" stroke-linecap="round" stroke-linejoin="round"/>
<path d="M74.6016 59.8674V69.0969L67.1016 77.5325L59.6016 69.1962V59.9667C61.7016 61.1576 64.1016 61.8523 66.7016 61.8523H67.5016C70.1016 61.753 72.5016 61.0583 74.6016 59.8674Z" fill="white" stroke="#1D4289" stroke-width="1.5" stroke-miterlimit="10" stroke-linecap="round" stroke-linejoin="round"/>
</svg>
