<svg width="134" height="134" viewBox="0 0 134 134" fill="none" xmlns="http://www.w3.org/2000/svg">
<path d="M34.1 10.246C43.8 4.68845 55.1 1.5127 67.1 1.5127C103.6 1.5127 133.2 30.8884 133.2 67.1118C133.2 103.335 103.6 132.711 67.1 132.711C30.6 132.711 1 103.335 1 67.1118C1 53.2179 5.3 40.4157 12.7 29.7967" stroke="#1D4289" stroke-width="1.5" stroke-miterlimit="10" stroke-linecap="square" stroke-linejoin="round"/>
<path d="M64.9 132.711C55.4 132.413 46.4 130.131 38.3 126.26C26.4 120.504 16.4 111.275 9.80005 99.9612H37.8C37.9 100.457 38.1 100.954 38.3 101.549C40 107.007 42.1 111.969 44.6 116.237C50 125.665 57.1 131.818 64.9 132.711Z" fill="#8CA0C4" stroke="#1D4289" stroke-width="1.5" stroke-miterlimit="10" stroke-linecap="round" stroke-linejoin="round"/>
<path d="M124.202 99.9612C120.702 106.114 116.102 111.572 110.902 116.237C106.402 120.206 101.302 123.68 95.8016 126.26C87.6016 130.131 78.5016 132.512 68.9016 132.711C76.7016 131.818 83.8016 125.764 89.3016 116.237C91.8016 111.771 94.0016 106.61 95.8016 100.755C95.9016 100.457 96.0016 100.259 96.0016 99.9612H124.202Z" fill="#8CA0C4" stroke="#1D4289" stroke-width="1.5" stroke-miterlimit="10" stroke-linecap="round" stroke-linejoin="round"/>
<path d="M95.9 99.9612C95.8 100.259 95.7 100.457 95.7 100.755C93.9 106.511 91.7 111.771 89.2 116.237H44.6C42.2 111.97 40 107.007 38.3 101.549C38.1 101.053 38 100.557 37.8 99.9612H95.9Z" fill="#8CA0C4" stroke="#1D4289" stroke-width="1.5" stroke-miterlimit="10" stroke-linecap="round" stroke-linejoin="round"/>
<path d="M89.2 116.138C83.7 125.665 76.6 131.818 68.8 132.612C68.2 132.612 67.6 132.612 67 132.612C66.3 132.612 65.6 132.612 64.9 132.612C57.1 131.719 50 125.665 44.6 116.138H89.2Z" fill="#8CA0C4" stroke="#1D4289" stroke-width="1.5" stroke-miterlimit="10" stroke-linecap="round" stroke-linejoin="round"/>
<path d="M110.798 116.138H89.1985H110.798Z" fill="#8CA0C4"/>
<path d="M110.798 116.138H89.1985" stroke="#1D4289" stroke-width="1.5" stroke-miterlimit="10" stroke-linecap="round" stroke-linejoin="round"/>
<path d="M44.6016 116.138H23.4016" stroke="#1D4289" stroke-width="1.5" stroke-miterlimit="10" stroke-linecap="round" stroke-linejoin="round"/>
<path d="M87.4 85.0747H75.7V94.6021H87.4V85.0747Z" fill="white" stroke="#1D4289" stroke-width="1.5" stroke-miterlimit="10" stroke-linecap="round" stroke-linejoin="round"/>
<path d="M95.9016 94.6021H58.6016V99.8621H95.9016V94.6021Z" fill="white" stroke="#1D4289" stroke-width="1.5" stroke-miterlimit="10" stroke-linecap="round" stroke-linejoin="round"/>
<path d="M114.1 42.7976H48V78.7234H114.1V42.7976Z" fill="white" stroke="#1D4289" stroke-width="1.5" stroke-miterlimit="10" stroke-linecap="round" stroke-linejoin="round"/>
<path d="M114.1 78.7234H48V85.0747H114.1V78.7234Z" fill="white" stroke="#1D4289" stroke-width="1.5" stroke-miterlimit="10" stroke-linecap="round" stroke-linejoin="round"/>
<path d="M89.5 21.6589H53.3V74.5552H89.5V21.6589Z" fill="white" stroke="#1D4289" stroke-width="1.5" stroke-miterlimit="10" stroke-linecap="round" stroke-linejoin="round"/>
<path d="M45.5 52.0271C36.7 52.0271 29.5 59.1725 29.5 67.9058C29.5 76.639 36.7 83.7844 45.5 83.7844C54.3 83.7844 61.5 76.639 61.5 67.9058C61.5 59.1725 54.4 52.0271 45.5 52.0271ZM45.5 78.5246C39.6 78.5246 34.8 73.761 34.8 67.9058C34.8 62.0505 39.6 57.2869 45.5 57.2869C51.4 57.2869 56.2 62.0505 56.2 67.9058C56.2 73.761 51.4 78.5246 45.5 78.5246Z" fill="#8CA0C4" stroke="#1D4289" stroke-width="1.5" stroke-miterlimit="10" stroke-linecap="round" stroke-linejoin="round"/>
<path d="M70.6 68.2034H20.5V99.9612H70.6V68.2034Z" fill="#F6BE00" stroke="#1D4289" stroke-width="1.5" stroke-miterlimit="10" stroke-linecap="round" stroke-linejoin="round"/>
<path d="M70.6 68.2034H20.5V83.0898H70.6V68.2034Z" fill="#8CA0C4" stroke="#1D4289" stroke-width="1.5" stroke-miterlimit="10" stroke-linecap="round" stroke-linejoin="round"/>
<path d="M70.6 82.9907H20.5V99.8621H70.6V82.9907Z" fill="white" stroke="#1D4289" stroke-width="1.5" stroke-miterlimit="10" stroke-linecap="round" stroke-linejoin="round"/>
<path d="M49.8 78.8225H41.3V87.2581H49.8V78.8225Z" fill="#F6BE00" stroke="#1D4289" stroke-width="1.5" stroke-miterlimit="10" stroke-linecap="round" stroke-linejoin="round"/>
<path d="M82.0016 36.446C82.0016 42.3013 77.2016 47.0649 71.3016 47.0649C65.4016 47.0649 60.6016 42.3013 60.6016 36.446C60.6016 33.3695 61.9016 30.5908 64.0016 28.7052C65.9016 26.9188 68.5016 25.8271 71.3016 25.8271C74.2016 25.8271 76.9016 27.0181 78.8016 28.9037C80.8016 30.8885 82.0016 33.568 82.0016 36.446Z" fill="#F6BE00" stroke="#1D4289" stroke-width="1.5" stroke-miterlimit="10" stroke-linecap="round" stroke-linejoin="round"/>
<path d="M78.8 29.0037L71.5 36.2483L64 28.8052C65.9 27.0189 68.5 25.9272 71.3 25.9272C74.3 25.9272 76.9 27.1181 78.8 29.0037Z" fill="#8CA0C4" stroke="#1D4289" stroke-width="1.5" stroke-miterlimit="10" stroke-linecap="round" stroke-linejoin="round"/>
<path d="M75.6016 41.6064L92.8016 58.6763H110.902" stroke="#1D4289" stroke-width="1.5" stroke-miterlimit="10" stroke-linecap="round" stroke-linejoin="round"/>
<path d="M109.8 46.8665H93.8V54.4089H109.8V46.8665Z" fill="#F6BE00" stroke="#1D4289" stroke-width="1.5" stroke-miterlimit="10" stroke-linecap="round" stroke-linejoin="round"/>
<path d="M92.8 62.9436H110.9" stroke="#1D4289" stroke-width="1.5" stroke-miterlimit="10" stroke-linecap="round" stroke-linejoin="round"/>
<path d="M60.7 51.2332H82.1" stroke="#1D4289" stroke-width="1.5" stroke-miterlimit="10" stroke-linecap="round" stroke-linejoin="round"/>
<path d="M60.7 55.5005H82.1" stroke="#1D4289" stroke-width="1.5" stroke-miterlimit="10" stroke-linecap="round" stroke-linejoin="round"/>
<path d="M67.2 59.7678H82.1" stroke="#1D4289" stroke-width="1.5" stroke-miterlimit="10" stroke-linecap="round" stroke-linejoin="round"/>
<path d="M67.2 63.936H82.1" stroke="#1D4289" stroke-width="1.5" stroke-miterlimit="10" stroke-linecap="round" stroke-linejoin="round"/>
<path d="M92.8 67.1121H110.9" stroke="#1D4289" stroke-width="1.5" stroke-miterlimit="10" stroke-linecap="round" stroke-linejoin="round"/>
<path d="M92.8 71.3792H110.9" stroke="#1D4289" stroke-width="1.5" stroke-miterlimit="10" stroke-linecap="round" stroke-linejoin="round"/>
<path d="M19 27.9114C26.0693 27.9114 31.8001 22.224 31.8001 15.2083C31.8001 8.19251 26.0693 2.50513 19 2.50513C11.9307 2.50513 6.19995 8.19251 6.19995 15.2083C6.19995 22.224 11.9307 27.9114 19 27.9114Z" fill="#F6BE00" stroke="#1D4289" stroke-width="1.5" stroke-miterlimit="10" stroke-linecap="round" stroke-linejoin="round"/>
<path d="M13.3015 13.9179L17.8015 18.3838L28.9015 7.36792" stroke="#1D4289" stroke-width="1.5" stroke-miterlimit="10" stroke-linecap="square"/>
</svg>
