<svg width="40" height="40" viewBox="0 0 40 40" fill="none" xmlns="http://www.w3.org/2000/svg">
<g clip-path="url(#clip0_93_1591)">
<path d="M14.7 13.6999V17.5999H13.7C12.6 17.5999 11.7 16.6999 11.7 15.5999C11.7 14.9999 11.9 14.5999 12.3 14.1999C12.4 14.0999 12.4 14.0999 12.5 13.9999C12.8 13.7999 13.2 13.5999 13.7 13.5999H14.7V13.6999Z" fill="white" stroke="#1D4289" stroke-width="1.5" stroke-miterlimit="10" stroke-linecap="round" stroke-linejoin="round"/>
<path d="M28.3 15.6C28.3 16.7 27.4 17.6 26.3 17.6H25.3V13.7H26.3C26.7 13.7 27.2 13.9 27.5 14.1C27.6 14.2 27.6001 14.2 27.7001 14.3C28.1001 14.6 28.3 15.1 28.3 15.6Z" fill="white" stroke="#1D4289" stroke-width="1.5" stroke-miterlimit="10" stroke-linecap="round" stroke-linejoin="round"/>
<path d="M22.7001 22.2V25.5L20 28.5L17.3 25.5V22.2C17.4 22.2 17.5 22.2999 17.6 22.2999C18.3001 22.5999 19 22.7999 19.8 22.7999H20.1C20.9 22.7999 21.7 22.5999 22.3 22.2999C22.5 22.2999 22.6001 22.2 22.7001 22.2Z" fill="white" stroke="#1D4289" stroke-width="1.5" stroke-miterlimit="10" stroke-linecap="round" stroke-linejoin="round"/>
<path d="M27.6 12.6999V14.0999C27.3 13.8999 26.9 13.6999 26.4 13.6999H25.5C25.4 13.6999 25.4 13.6999 25.3 13.6999C25.1 13.6999 24.8 13.5999 24.6 13.5999C24.2 13.4999 23.8 13.1999 23.5 12.8999C23.3 12.6999 23.1 12.4999 23 12.1999C22.8 11.8999 22.7 11.6999 22.6 11.2999C22.4 12.5999 21.3 13.5999 19.9 13.5999H13.5C13.1 13.5999 12.6 13.7999 12.3 13.9999V12.5999C12.3 8.39985 15.7 5.09985 19.8 5.09985C24.2 5.09985 27.6 8.49985 27.6 12.6999Z" fill="#F6BE00" stroke="#1D4289" stroke-width="1.5" stroke-miterlimit="10" stroke-linecap="round" stroke-linejoin="round"/>
<path d="M30.7001 31.8998C28.1 33.8998 24.9 35.1998 21.5 35.4998C21 35.4998 20.5 35.5998 20 35.5998C19.5 35.5998 19 35.5998 18.5 35.4998C15.1 35.1998 11.9 33.8998 9.30005 31.8998C9.30005 28.9998 11.4 26.4998 14.3 25.9998L15.3 25.7998L16.3 30.1998L18.1 29.2998L19.2 28.7998L19.9 28.3998L20.6 28.7998L21.7 29.2998L23.5 30.1998L24.5 25.7998L25.5 25.9998C28.5 26.4998 30.7001 28.9998 30.7001 31.8998Z" fill="#8CA0C4" stroke="#1D4289" stroke-width="1.5" stroke-miterlimit="10" stroke-linecap="round" stroke-linejoin="round"/>
<path d="M20 28.4998L19.8 28.5998L19.3 28.8998L18.2 29.3998L16.4 30.2998L15.3 25.7998L17.3 25.4998L20 28.4998Z" fill="white" stroke="#1D4289" stroke-width="1.5" stroke-miterlimit="10" stroke-linecap="round" stroke-linejoin="round"/>
<path d="M24.7 25.7998L23.6 30.2998L21.8 29.3998L20.7 28.8998L20.2 28.5998L20 28.4998L22.7 25.4998L24.7 25.7998Z" fill="white" stroke="#1D4289" stroke-width="1.5" stroke-miterlimit="10" stroke-linecap="round" stroke-linejoin="round"/>
<path d="M25.3001 13.6999V17.5999C25.3001 19.5999 24.2001 21.2999 22.6001 22.0999C22.5001 22.0999 22.4001 22.1999 22.3001 22.1999C21.6001 22.4999 20.9001 22.6999 20.1001 22.6999H19.8001C19.0001 22.6999 18.2001 22.4999 17.6001 22.1999C17.5001 22.1999 17.4001 22.0999 17.3001 22.0999C15.7001 21.1999 14.6001 19.4999 14.6001 17.5999V13.6999H20.0001C21.4001 13.6999 22.5001 12.6999 22.7001 11.3999C22.8001 11.6999 22.9001 11.9999 23.1001 12.2999C23.2001 12.4999 23.4001 12.7999 23.6001 12.9999C23.9001 13.2999 24.3001 13.4999 24.7001 13.6999C24.9001 13.5999 25.1001 13.6999 25.3001 13.6999Z" fill="white" stroke="#1D4289" stroke-width="1.5" stroke-miterlimit="10" stroke-linecap="round" stroke-linejoin="round"/>
<path d="M11.1 4.6999V5.3999C11.1 6.4999 10.7 7.4999 9.9 8.2999L9.5 8.5999C9.3 8.7999 9.1 9.1999 9.1 9.4999V9.8999H5.6V9.4999C5.6 9.1999 5.5 8.7999 5.2 8.5999L4.8 8.1999C4 7.4999 3.5 6.3999 3.5 5.2999V4.6999C3.5 2.5999 5.2 0.899902 7.3 0.899902C8.3 0.899902 9.3 1.2999 10 1.9999C10.7 2.6999 11.1 3.5999 11.1 4.6999Z" fill="#F6BE00" stroke="#1D4289" stroke-width="1.5" stroke-miterlimit="10" stroke-linecap="round" stroke-linejoin="round"/>
<path d="M10.0001 10.6998C10.0001 10.8998 9.9001 11.1998 9.7001 11.2998C9.5001 11.4998 9.3001 11.5998 9.1001 11.5998H5.5001C5.0001 11.5998 4.6001 11.1998 4.6001 10.6998C4.6001 10.4998 4.7001 10.1998 4.9001 10.0998C5.1001 9.8998 5.3001 9.7998 5.5001 9.7998H9.1001C9.6001 9.7998 10.0001 10.1998 10.0001 10.6998Z" fill="white" stroke="#1D4289" stroke-width="1.5" stroke-miterlimit="10" stroke-linecap="round" stroke-linejoin="round"/>
<path d="M7.30005 6.89995L8.50005 5.69995" stroke="#1D4289" stroke-width="1.5" stroke-miterlimit="10" stroke-linecap="round" stroke-linejoin="round"/>
<path d="M7.3 6.89995L6 5.69995" stroke="#1D4289" stroke-width="1.5" stroke-miterlimit="10" stroke-linecap="round" stroke-linejoin="round"/>
<path d="M7.30005 9.7999V6.8999" stroke="#1D4289" stroke-width="1.5" stroke-miterlimit="10" stroke-linecap="round" stroke-linejoin="round"/>
<path d="M8.89995 11.5999C8.79995 12.3999 8.09995 12.9999 7.29995 12.9999C6.49995 12.9999 5.79995 12.3999 5.69995 11.6999H8.89995V11.5999Z" fill="white" stroke="#1D4289" stroke-width="1.5" stroke-miterlimit="10" stroke-linecap="round" stroke-linejoin="round"/>
<path d="M13.1 1.99995C15.2 1.19995 17.6 0.699951 20 0.699951C30.6 0.699951 39.3 9.29995 39.3 20C39.3 30.7 30.6 39.2 20 39.2C9.40005 39.2 0.800049 30.6 0.800049 20C0.800049 17.1 1.50005 14.3 2.60005 11.8" stroke="#1D4289" stroke-width="1.5" stroke-miterlimit="10" stroke-linecap="square" stroke-linejoin="round"/>
<path d="M20 39.3C14 39.3 8.69995 36.6 5.19995 32.3H12.6C14.4 36.6 17 39.3 20 39.3Z" fill="#8CA0C4" stroke="#1D4289" stroke-width="1.5" stroke-miterlimit="10" stroke-linecap="round" stroke-linejoin="round"/>
<path d="M27.3999 32.3C25.5999 36.6 22.9999 39.3 19.9999 39.3C16.9999 39.3 14.3999 36.6 12.5999 32.3H27.3999Z" fill="#8CA0C4" stroke="#1D4289" stroke-width="1.5" stroke-miterlimit="10" stroke-linecap="round" stroke-linejoin="round"/>
<path d="M34.8 32.3C31.3 36.6 26 39.3 20 39.3C23 39.3 25.6 36.6 27.4 32.3H34.8Z" fill="#8CA0C4" stroke="#1D4289" stroke-width="1.5" stroke-miterlimit="10" stroke-linecap="round" stroke-linejoin="round"/>
</g>
<defs>
<clipPath id="clip0_93_1591">
<rect width="40" height="40" fill="white"/>
</clipPath>
</defs>
</svg>
