<svg width="134" height="134" viewBox="0 0 134 134" fill="none" xmlns="http://www.w3.org/2000/svg">
<path d="M122.9 70.5854V66.3179H119.3C119.2 65.8217 119 65.4247 118.8 65.0278L121.4 62.4474L118.4 59.4701L115.8 62.0504C115.4 61.8519 114.9 61.6535 114.5 61.5542V57.9814H110.2V61.5542C109.7 61.6535 109.3 61.8519 108.9 62.0504L106.3 59.4701L103.3 62.4474L105.9 65.0278C105.7 65.4247 105.5 65.9209 105.4 66.3179H101.8V70.5854H105.4C105.5 71.0816 105.7 71.4786 105.9 71.8756L103.3 74.4559L106.3 77.4332L108.9 74.8529C109.3 75.0514 109.8 75.2499 110.2 75.3491V78.9219H114.5V75.3491C115 75.2499 115.4 75.0514 115.8 74.8529L118.4 77.4332L121.4 74.4559L118.8 71.8756C119 71.4786 119.2 70.9824 119.3 70.5854H122.9ZM115.3 68.5013C115.3 69.2952 115 69.9899 114.4 70.5854L114.3 70.6846C113.8 71.1809 113 71.4786 112.2 71.5778H112.1C111.3 71.5778 110.6 71.2801 110 70.6846L109.9 70.5854C109.4 70.0892 109.1 69.2952 109 68.5013V68.402C109 67.6081 109.3 66.9134 109.9 66.3179L110 66.2187C110.5 65.7225 111.3 65.4247 112.1 65.3255H112.2C113 65.3255 113.7 65.6232 114.3 66.2187L114.4 66.3179C114.9 66.8141 115.2 67.6081 115.3 68.402V68.5013Z" fill="white" stroke="#1D4289" stroke-width="1.5" stroke-miterlimit="10" stroke-linecap="round" stroke-linejoin="round"/>
<path d="M64.9 132.514C55.4 132.216 46.4 129.933 38.4 126.063C26.5 120.307 16.6 111.176 10 99.7634H38C38.1 100.26 38.3 100.756 38.5 101.351C40.2 106.81 42.3 111.772 44.8 116.039C50 125.467 57.1 131.62 64.9 132.514Z" fill="#8CA0C4" stroke="#1D4289" stroke-width="1.5" stroke-miterlimit="10" stroke-linecap="round" stroke-linejoin="round"/>
<path d="M124 99.7634C120.5 105.916 115.9 111.375 110.7 115.94C106.2 119.91 101.1 123.284 95.6 125.964C87.5 129.834 78.4 132.117 68.8 132.414C76.6 131.521 83.7 125.467 89.1 115.94C91.6 111.474 93.8 106.313 95.6 100.557C95.7 100.26 95.8 100.061 95.8 99.7634H124Z" fill="#8CA0C4" stroke="#1D4289" stroke-width="1.5" stroke-miterlimit="10" stroke-linecap="round" stroke-linejoin="round"/>
<path d="M95.8 99.7626C95.7 100.06 95.6 100.259 95.6 100.557C93.8 106.313 91.7 111.573 89.1 115.939H44.6C42.2 111.672 40.1 106.71 38.3 101.251C38.1 100.755 38 100.259 37.8 99.6633H95.8V99.7626Z" fill="#8CA0C4" stroke="#1D4289" stroke-width="1.5" stroke-miterlimit="10" stroke-linecap="round" stroke-linejoin="round"/>
<path d="M89.1016 115.939C83.6016 125.466 76.6016 131.52 68.8016 132.413C68.2016 132.413 67.6016 132.413 67.0016 132.413C66.3016 132.413 65.6016 132.413 64.9016 132.413C57.1016 131.52 50.1016 125.466 44.6016 115.939H89.1016Z" fill="#8CA0C4" stroke="#1D4289" stroke-width="1.5" stroke-miterlimit="10" stroke-linecap="round" stroke-linejoin="round"/>
<path d="M110.702 115.939H89.1016H110.702Z" fill="#8CA0C4"/>
<path d="M110.702 115.939H89.1016" stroke="#1D4289" stroke-width="1.5" stroke-miterlimit="10" stroke-linecap="round" stroke-linejoin="round"/>
<path d="M44.5984 115.939H23.3984" stroke="#1D4289" stroke-width="1.5" stroke-miterlimit="10" stroke-linecap="round" stroke-linejoin="round"/>
<path d="M112.3 32.1785H85.7V99.7625H112.3V32.1785Z" fill="white" stroke="#1D4289" stroke-width="1.5" stroke-miterlimit="10" stroke-linecap="round" stroke-linejoin="round"/>
<path d="M108 25.8271H89.9V32.1785H108V25.8271Z" fill="#8CA0C4" stroke="#1D4289" stroke-width="1.5" stroke-miterlimit="10" stroke-linecap="round" stroke-linejoin="round"/>
<path d="M102.6 20.5671H95.2V25.8271H102.6V20.5671Z" fill="white" stroke="#1D4289" stroke-width="1.5" stroke-miterlimit="10" stroke-linecap="round" stroke-linejoin="round"/>
<path d="M96.3 78.624H91V83.884H96.3V78.624Z" fill="white" stroke="#1D4289" stroke-width="1.5" stroke-miterlimit="10" stroke-linecap="round" stroke-linejoin="round"/>
<path d="M106.902 78.624H101.602V83.884H106.902V78.624Z" fill="white" stroke="#1D4289" stroke-width="1.5" stroke-miterlimit="10" stroke-linecap="round" stroke-linejoin="round"/>
<path d="M96.3 89.2429H91V94.5027H96.3V89.2429Z" fill="white" stroke="#1D4289" stroke-width="1.5" stroke-miterlimit="10" stroke-linecap="round" stroke-linejoin="round"/>
<path d="M106.902 89.2429H101.602V94.5027H106.902V89.2429Z" fill="white" stroke="#1D4289" stroke-width="1.5" stroke-miterlimit="10" stroke-linecap="round" stroke-linejoin="round"/>
<path d="M96.3 57.5845H91V62.8447H96.3V57.5845Z" fill="white" stroke="#1D4289" stroke-width="1.5" stroke-miterlimit="10" stroke-linecap="round" stroke-linejoin="round"/>
<path d="M106.902 57.5845H101.602V62.8447H106.902V57.5845Z" fill="white" stroke="#1D4289" stroke-width="1.5" stroke-miterlimit="10" stroke-linecap="round" stroke-linejoin="round"/>
<path d="M96.3 68.1045H91V73.3643H96.3V68.1045Z" fill="white" stroke="#1D4289" stroke-width="1.5" stroke-miterlimit="10" stroke-linecap="round" stroke-linejoin="round"/>
<path d="M106.902 68.1045H101.602V73.3643H106.902V68.1045Z" fill="white" stroke="#1D4289" stroke-width="1.5" stroke-miterlimit="10" stroke-linecap="round" stroke-linejoin="round"/>
<path d="M96.3 46.9658H91V52.2258H96.3V46.9658Z" fill="white" stroke="#1D4289" stroke-width="1.5" stroke-miterlimit="10" stroke-linecap="round" stroke-linejoin="round"/>
<path d="M106.902 46.9658H101.602V52.2258H106.902V46.9658Z" fill="white" stroke="#1D4289" stroke-width="1.5" stroke-miterlimit="10" stroke-linecap="round" stroke-linejoin="round"/>
<path d="M96.3 37.4385H91V42.6982H96.3V37.4385Z" fill="white" stroke="#1D4289" stroke-width="1.5" stroke-miterlimit="10" stroke-linecap="round" stroke-linejoin="round"/>
<path d="M106.902 37.4385H101.602V42.6982H106.902V37.4385Z" fill="white" stroke="#1D4289" stroke-width="1.5" stroke-miterlimit="10" stroke-linecap="round" stroke-linejoin="round"/>
<path d="M48.4 99.7625H21.8V73.3641L35.2 60.2642L48.4 73.3641V99.7625Z" fill="#F6BE00" stroke="#1D4289" stroke-width="1.5" stroke-miterlimit="10" stroke-linecap="round" stroke-linejoin="round"/>
<path d="M32.4 78.624H27.1V83.884H32.4V78.624Z" fill="white" stroke="#1D4289" stroke-width="1.5" stroke-miterlimit="10" stroke-linecap="round" stroke-linejoin="round"/>
<path d="M43.1 78.624H37.8V83.884H43.1V78.624Z" fill="white" stroke="#1D4289" stroke-width="1.5" stroke-miterlimit="10" stroke-linecap="round" stroke-linejoin="round"/>
<path d="M32.4 89.2429H27.1V94.5027H32.4V89.2429Z" fill="white" stroke="#1D4289" stroke-width="1.5" stroke-miterlimit="10" stroke-linecap="round" stroke-linejoin="round"/>
<path d="M43.1 89.2429H37.8V94.5027H43.1V89.2429Z" fill="white" stroke="#1D4289" stroke-width="1.5" stroke-miterlimit="10" stroke-linecap="round" stroke-linejoin="round"/>
<path d="M90.9984 41.7058H64.3984V99.7625H90.9984V41.7058Z" fill="#8CA0C4" stroke="#1D4289" stroke-width="1.5" stroke-miterlimit="10" stroke-linecap="round" stroke-linejoin="round"/>
<path d="M74.9984 78.624H69.6984V83.884H74.9984V78.624Z" fill="white" stroke="#1D4289" stroke-width="1.5" stroke-miterlimit="10" stroke-linecap="round" stroke-linejoin="round"/>
<path d="M85.6 78.624H80.3V83.884H85.6V78.624Z" fill="white" stroke="#1D4289" stroke-width="1.5" stroke-miterlimit="10" stroke-linecap="round" stroke-linejoin="round"/>
<path d="M74.9984 89.2429H69.6984V94.5027H74.9984V89.2429Z" fill="white" stroke="#1D4289" stroke-width="1.5" stroke-miterlimit="10" stroke-linecap="round" stroke-linejoin="round"/>
<path d="M85.6 89.2429H80.3V94.5027H85.6V89.2429Z" fill="white" stroke="#1D4289" stroke-width="1.5" stroke-miterlimit="10" stroke-linecap="round" stroke-linejoin="round"/>
<path d="M74.9984 57.5845H69.6984V62.8447H74.9984V57.5845Z" fill="white" stroke="#1D4289" stroke-width="1.5" stroke-miterlimit="10" stroke-linecap="round" stroke-linejoin="round"/>
<path d="M85.6 57.5845H80.3V62.8447H85.6V57.5845Z" fill="white" stroke="#1D4289" stroke-width="1.5" stroke-miterlimit="10" stroke-linecap="round" stroke-linejoin="round"/>
<path d="M74.9984 68.1045H69.6984V73.3643H74.9984V68.1045Z" fill="white" stroke="#1D4289" stroke-width="1.5" stroke-miterlimit="10" stroke-linecap="round" stroke-linejoin="round"/>
<path d="M85.6 68.1045H80.3V73.3643H85.6V68.1045Z" fill="white" stroke="#1D4289" stroke-width="1.5" stroke-miterlimit="10" stroke-linecap="round" stroke-linejoin="round"/>
<path d="M74.9984 46.9658H69.6984V52.2258H74.9984V46.9658Z" fill="white" stroke="#1D4289" stroke-width="1.5" stroke-miterlimit="10" stroke-linecap="round" stroke-linejoin="round"/>
<path d="M85.6 46.9658H80.3V52.2258H85.6V46.9658Z" fill="white" stroke="#1D4289" stroke-width="1.5" stroke-miterlimit="10" stroke-linecap="round" stroke-linejoin="round"/>
<path d="M69.7016 54.4089V99.7625H43.1016V69.7914L58.6016 54.4089H69.7016Z" fill="white" stroke="#1D4289" stroke-width="1.5" stroke-miterlimit="10" stroke-linecap="round" stroke-linejoin="round"/>
<path d="M53.7016 78.624H48.4016V83.884H53.7016V78.624Z" fill="white" stroke="#1D4289" stroke-width="1.5" stroke-miterlimit="10" stroke-linecap="round" stroke-linejoin="round"/>
<path d="M64.4017 78.624H59.1016V83.884H64.4017V78.624Z" fill="white" stroke="#1D4289" stroke-width="1.5" stroke-miterlimit="10" stroke-linecap="round" stroke-linejoin="round"/>
<path d="M53.7016 89.2429H48.4016V94.5027H53.7016V89.2429Z" fill="white" stroke="#1D4289" stroke-width="1.5" stroke-miterlimit="10" stroke-linecap="round" stroke-linejoin="round"/>
<path d="M64.4016 89.2429H59.1016V94.5027H64.4016V89.2429Z" fill="white" stroke="#1D4289" stroke-width="1.5" stroke-miterlimit="10" stroke-linecap="round" stroke-linejoin="round"/>
<path d="M53.7016 68.1045H48.4016V73.3643H53.7016V68.1045Z" fill="white" stroke="#1D4289" stroke-width="1.5" stroke-miterlimit="10" stroke-linecap="round" stroke-linejoin="round"/>
<path d="M64.4017 68.1045H59.1016V73.3643H64.4017V68.1045Z" fill="white" stroke="#1D4289" stroke-width="1.5" stroke-miterlimit="10" stroke-linecap="round" stroke-linejoin="round"/>
<path d="M75.3 14.3149L74.1 27.4149L70.4 23.743L45.9 48.0574L35.3 37.4384L10.7 61.8521V52.821L35.3 28.4074L45.9 38.9271L65.8 19.1778L62 15.5059L70.3 14.7119H70.5L75.3 14.3149Z" fill="#F6BE00" stroke="#1D4289" stroke-width="1.5" stroke-miterlimit="10" stroke-linecap="round" stroke-linejoin="round"/>
<path d="M33.8 10.4445C43.6 4.7877 54.9 1.5127 67 1.5127C103.4 1.5127 133 30.7892 133 67.0127C133 103.236 103.5 132.513 67 132.513C30.5 132.513 1 103.236 1 67.0127C1 52.3248 5.9 38.8278 14.1 27.9112" stroke="#1D4289" stroke-width="1.5" stroke-miterlimit="10" stroke-linecap="square" stroke-linejoin="round"/>
<path d="M31.8016 17.6893V12.6279H27.4016C27.2016 12.1317 27.0016 11.5363 26.7016 11.04L29.8016 7.9635L26.2016 4.39075L23.1016 7.46729C22.6016 7.16956 22.1016 6.97107 21.5016 6.77258V2.50513H16.4016V6.87183C15.9016 7.07031 15.3016 7.2688 14.8016 7.56653L11.7016 4.48999L8.10156 8.06274L11.2016 11.1393C10.9016 11.6355 10.7016 12.1317 10.5016 12.7272H6.10156V17.7886H10.5016C10.7016 18.2848 10.9016 18.8803 11.2016 19.3765L8.20156 22.3538L11.8016 25.9265L14.9016 22.85C15.4016 23.1477 15.9016 23.3462 16.5016 23.5447V27.9114H21.6016V23.5447C22.1016 23.3462 22.7016 23.1477 23.2016 22.85L26.3016 25.9265L29.9016 22.3538L26.8016 19.2772C27.1016 18.781 27.3016 18.2848 27.5016 17.6893H31.8016ZM22.7016 15.2083C22.7016 16.2007 22.3016 16.9946 21.7016 17.6893L21.6016 17.7886C20.9016 18.384 20.1016 18.781 19.1016 18.781H19.0016C18.0016 18.781 17.2016 18.384 16.5016 17.7886L16.4016 17.6893C15.8016 16.9946 15.4016 16.2007 15.4016 15.2083V15.109C15.4016 14.1166 15.8016 13.3226 16.4016 12.6279L16.5016 12.5287C17.2016 11.9332 18.0016 11.5363 19.0016 11.5363H19.1016C20.1016 11.5363 20.9016 11.9332 21.6016 12.5287L21.7016 12.6279C22.3016 13.3226 22.7016 14.1166 22.7016 15.109V15.2083Z" fill="#F6BE00" stroke="#1D4289" stroke-width="1.5" stroke-miterlimit="10" stroke-linecap="round" stroke-linejoin="round"/>
</svg>
