<svg width="41" height="41" viewBox="0 0 41 41" fill="none" xmlns="http://www.w3.org/2000/svg">
<path d="M23.4 27.1001V34.7001H8.19995V27.1001L15.9 19.6001L20.5 24.2001V24.3001L23.4 27.1001Z" fill="#F6BE00" stroke="#1D4289" stroke-width="1.5" stroke-miterlimit="10" stroke-linecap="round" stroke-linejoin="round"/>
<path d="M32.4 16.2V34.5H17.3V25.1L26.1 16.2H32.4Z" fill="white" stroke="#1D4289" stroke-width="1.5" stroke-miterlimit="10" stroke-linecap="round" stroke-linejoin="round"/>
<path d="M23.3 26.2H20.3V29.2H23.3V26.2Z" fill="white" stroke="#1D4289" stroke-width="1.5" stroke-miterlimit="10" stroke-linecap="round" stroke-linejoin="round"/>
<path d="M28.6 7.30005L28 13.3L26.3 11.6L19.3 18.7L15.8 15.1L8.19995 22.7V18.4L15.8 10.9L19.3 14.4L24.2 9.50005L22.5 7.80005L28.6 7.30005Z" fill="#F6BE00" stroke="#1D4289" stroke-width="1.5" stroke-miterlimit="10" stroke-linecap="round" stroke-linejoin="round"/>
<path d="M29.3 26.2H26.3V29.2H29.3V26.2Z" fill="white" stroke="#1D4289" stroke-width="1.5" stroke-miterlimit="10" stroke-linecap="round" stroke-linejoin="round"/>
<path d="M29.3 20.3H26.3V23.3H29.3V20.3Z" fill="white" stroke="#1D4289" stroke-width="1.5" stroke-miterlimit="10" stroke-linecap="round" stroke-linejoin="round"/>
<path d="M13.2001 8.4001V6.0001H11.1001C11.0001 5.7001 10.9001 5.5001 10.8001 5.3001L12.3001 3.8001L10.6001 2.1001L9.1001 3.5001C8.9001 3.4001 8.7001 3.3001 8.4001 3.2001V1.1001H6.0001V3.2001C5.7001 3.3001 5.5001 3.4001 5.2001 3.5001L3.8001 2.1001L2.1001 3.8001L3.6001 5.3001C3.4001 5.5001 3.3001 5.7001 3.2001 6.0001H1.1001V8.4001H3.2001C3.3001 8.7001 3.4001 8.9001 3.5001 9.2001L2.0001 10.7001L3.8001 12.3001L5.3001 10.8001C5.5001 10.9001 5.8001 11.0001 6.0001 11.1001V13.2001H8.4001V11.1001C8.7001 11.0001 8.9001 10.9001 9.1001 10.8001L10.6001 12.3001L12.3001 10.6001L10.8001 9.1001C10.9001 8.9001 11.0001 8.6001 11.1001 8.4001H13.2001ZM8.9001 7.2001C8.9001 7.7001 8.7001 8.1001 8.4001 8.4001C8.1001 8.7001 7.7001 8.9001 7.2001 8.9001C6.7001 8.9001 6.3001 8.7001 6.0001 8.5001C5.6001 8.1001 5.5001 7.7001 5.4001 7.2001C5.4001 6.7001 5.6001 6.3001 5.9001 6.0001C6.3001 5.6001 6.7001 5.5001 7.2001 5.5001H7.3001C7.8001 5.5001 8.2001 5.7001 8.5001 6.0001C8.7001 6.3001 8.9001 6.7001 8.9001 7.2001Z" fill="#F6BE00" stroke="#1D4289" stroke-width="1.5" stroke-miterlimit="10" stroke-linecap="round" stroke-linejoin="round"/>
<path d="M14.0001 2.1C16.0001 1.4 18.1001 1 20.3001 1C30.9001 1 39.6001 9.6 39.6001 20.3C39.6001 31 30.9001 39.5 20.3001 39.5C9.7001 39.5 1.1001 30.9 1.1001 20.3C1.1001 18.1 1.5001 16.1 2.1001 14.1" stroke="#1D4289" stroke-width="1.5" stroke-miterlimit="10" stroke-linecap="square" stroke-linejoin="round"/>
<path d="M20.3 39.6001C14.3 39.6001 9 36.9001 5.5 32.6001H12.9C14.7 36.9001 17.3 39.6001 20.3 39.6001Z" fill="#8CA0C4" stroke="#1D4289" stroke-width="1.5" stroke-miterlimit="10" stroke-linecap="round" stroke-linejoin="round"/>
<path d="M27.6999 32.6001C25.8999 36.9001 23.2999 39.6001 20.2999 39.6001C17.2999 39.6001 14.6999 36.9001 12.8999 32.6001H27.6999Z" fill="#8CA0C4" stroke="#1D4289" stroke-width="1.5" stroke-miterlimit="10" stroke-linecap="round" stroke-linejoin="round"/>
<path d="M35.1 32.6001C31.6 36.9001 26.3 39.6001 20.3 39.6001C23.3 39.6001 25.9 36.9001 27.7 32.6001H35.1Z" fill="#8CA0C4" stroke="#1D4289" stroke-width="1.5" stroke-miterlimit="10" stroke-linecap="round" stroke-linejoin="round"/>
</svg>
