<svg width="46" height="46" viewBox="0 0 46 46" fill="none" xmlns="http://www.w3.org/2000/svg">
<path d="M17.3 1.7C19.1 1.3 21 1 23 1C27.4 1 31.5 2.3 34.9 4.5C36.8 5.8 38.6 7.3 40 9.1C40.8 10.1 41.5 11.1 42.1 12.2C44 15.3 45 19 45 23C45 30.1 41.6 36.5 36.4 40.5C33.2 43 29.2 44.6 24.9 44.9C24.3 45 23.6 45 23 45C22.4 45 21.7 45 21.1 44.9C16.8 44.5 12.8 42.9 9.6 40.5C4.4 36.5 1 30.1 1 23C1 20.8 1.3 18.6 1.9 16.6" stroke="#1D4289" stroke-width="1.5" stroke-miterlimit="10" stroke-linejoin="round"/>
<path d="M9.10078 7.5V11.4C8.90078 11.4 8.80078 11.4 8.60078 11.4H6.80078C6.60078 11.4 6.50078 11.4 6.30078 11.4V7.5C6.60078 7.6 6.90078 7.6 7.20078 7.6H8.20078C8.60078 7.6 8.90078 7.6 9.10078 7.5Z" fill="#F6BE00" stroke="#1D4289" stroke-width="1.5" stroke-miterlimit="10" stroke-linecap="round" stroke-linejoin="round"/>
<path d="M11.5 14.1H4C4 13.3 4.3 12.6 4.8 12.1C5.2 11.7 5.7 11.4 6.3 11.3C6.5 11.3 6.6 11.3 6.8 11.3H8.7C8.9 11.3 9 11.3 9.2 11.3C10.5 11.6 11.5 12.7 11.5 14.1Z" fill="#F6BE00" stroke="#1D4289" stroke-width="1.5" stroke-miterlimit="10" stroke-linecap="round" stroke-linejoin="round"/>
<path d="M4.90078 6.6001C2.80078 6.1001 1.30078 4.3001 1.30078 2.1001H4.00078V4.4001C4.00078 5.2001 4.40078 6.0001 4.90078 6.6001Z" stroke="#1D4289" stroke-width="1.5" stroke-miterlimit="10" stroke-linecap="round" stroke-linejoin="round"/>
<path d="M14.2016 2.1001C14.2016 4.3001 12.7016 6.1001 10.6016 6.6001C11.1016 6.0001 11.4016 5.3001 11.4016 4.4001V2.1001H14.2016Z" stroke="#1D4289" stroke-width="1.5" stroke-miterlimit="10" stroke-linecap="round" stroke-linejoin="round"/>
<path d="M11.5 1.1001V4.4001C11.5 5.2001 11.2 6.0001 10.7 6.6001C10.3 7.0001 9.8 7.4001 9.2 7.5001C8.9 7.6001 8.6 7.6001 8.2 7.6001H7.2C6.9 7.6001 6.6 7.6001 6.3 7.5001C5.8 7.3001 5.3 7.0001 4.9 6.6001C4.4 6.0001 4 5.2001 4 4.4001V1.1001H11.5Z" fill="#F6BE00" stroke="#1D4289" stroke-width="1.5" stroke-miterlimit="10" stroke-linecap="round" stroke-linejoin="round"/>
<path d="M26.3031 28.2999V32.5L23.0031 36.2L19.7031 32.4V28.2C19.8031 28.3 19.9031 28.3 20.0031 28.4C20.8031 28.8 21.8031 29 22.8031 29H23.2031C24.2031 29 25.2031 28.8 26.0031 28.4C26.1031 28.4 26.2031 28.3999 26.3031 28.2999Z" fill="#F1F6FA" stroke="#1D4289" stroke-width="1.5" stroke-miterlimit="10" stroke-linecap="round" stroke-linejoin="round"/>
<path d="M32.5031 16.4V18.2C32.1031 17.9 31.6031 17.7 31.0031 17.7H29.9031C29.8031 17.7 29.8031 17.7 29.7031 17.7C29.4031 17.7 29.1031 17.6 28.8031 17.5C28.3031 17.3 27.8031 17 27.5031 16.7C27.3031 16.5 27.1031 16.2 26.9031 15.9C26.7031 15.6 26.5031 15.2 26.5031 14.8C26.2031 16.5 24.8031 17.7 23.1031 17.7H15.2031C14.6031 17.7 14.1031 17.9 13.7031 18.2V16.4C13.7031 11.2 17.9031 7 23.1031 7C28.2031 7 32.5031 11.2 32.5031 16.4Z" fill="#F6BE00" stroke="#1D4289" stroke-width="1.5" stroke-miterlimit="10" stroke-linecap="round" stroke-linejoin="round"/>
<path d="M36.4016 40.4999C33.2016 42.9999 29.2016 44.5999 24.9016 44.8999C24.2016 44.9999 23.6016 44.9999 23.0016 44.9999C22.4016 44.9999 21.8016 44.9999 21.1016 44.8999C16.8016 44.4999 12.8016 42.8999 9.60156 40.4999C9.60156 36.7999 12.3016 33.6999 15.9016 33.0999L17.1016 32.8999L18.4016 38.3999L20.7016 37.2999L22.0016 36.6999L22.9016 36.2999L23.8016 36.6999L25.1016 37.2999L27.4016 38.3999L28.7016 32.8999L29.9016 33.0999C33.7016 33.6999 36.3016 36.7999 36.4016 40.4999Z" fill="#8CA0C4" stroke="#1D4289" stroke-width="1.5" stroke-miterlimit="10" stroke-linecap="round" stroke-linejoin="round"/>
<path d="M23.0031 36.2L22.7031 36.4L22.1031 36.7L20.8031 37.3L18.4031 38.4L17.2031 32.9L19.7031 32.5L23.0031 36.2Z" fill="#F1F6FA" stroke="#1D4289" stroke-width="1.5" stroke-miterlimit="10" stroke-linecap="round" stroke-linejoin="round"/>
<path d="M28.9 32.9L27.5 38.4L25.2 37.3L23.9 36.7L23.3 36.4L23 36.2L26.3 32.5H26.4L28.9 32.9Z" fill="#F1F6FA" stroke="#1D4289" stroke-width="1.5" stroke-miterlimit="10" stroke-linecap="round" stroke-linejoin="round"/>
<path d="M29.7023 17.7V22.6C29.7023 25 28.4023 27.2 26.4023 28.3C26.3023 28.4 26.2023 28.4 26.0023 28.5C25.2023 28.9 24.2023 29.1 23.2023 29.1H22.8023C21.8023 29.1 20.8023 28.9 20.0023 28.5C19.9023 28.5 19.8023 28.4 19.7023 28.3C17.7023 27.2 16.4023 25.1 16.4023 22.6V17.7H23.0023C24.7023 17.7 26.1023 16.4 26.4023 14.8C26.5023 15.2 26.6023 15.6 26.8023 15.9C27.0023 16.2 27.2023 16.5 27.4023 16.7C27.8023 17.1 28.2023 17.4 28.7023 17.5C29.1023 17.6 29.4023 17.7 29.7023 17.7Z" fill="#F1F6FA" stroke="#1D4289" stroke-width="1.5" stroke-miterlimit="10" stroke-linecap="round" stroke-linejoin="round"/>
<path d="M16.3016 17.7V22.6H15.1016C13.7016 22.6 12.6016 21.5 12.6016 20.2C12.6016 19.5 12.9016 18.9 13.3016 18.5C13.4016 18.4 13.5016 18.3999 13.6016 18.2999C14.0016 17.9999 14.5016 17.7999 15.1016 17.7999H16.3016V17.7Z" fill="#F1F6FA" stroke="#1D4289" stroke-width="1.5" stroke-miterlimit="10" stroke-linecap="round" stroke-linejoin="round"/>
<path d="M33.4031 20.2C33.4031 21.5 32.3031 22.6 31.0031 22.6H29.7031V17.7H31.0031C31.6031 17.7 32.1031 17.9 32.5031 18.2C32.6031 18.3 32.7031 18.3 32.7031 18.4C33.1031 18.9 33.4031 19.5 33.4031 20.2Z" fill="#F1F6FA" stroke="#1D4289" stroke-width="1.5" stroke-miterlimit="10" stroke-linecap="round" stroke-linejoin="round"/>
</svg>
