<svg width="20" height="21" viewBox="0 0 20 21" fill="none" xmlns="http://www.w3.org/2000/svg">
<path fill-rule="evenodd" clip-rule="evenodd" d="M5.46112 5.22434C5.48716 2.73948 7.5149 0.74017 10.0025 0.750036C12.4829 0.7509 14.4965 2.74922 14.5226 5.22434H14.7422C17.5081 5.22434 19.75 7.46472 19.75 10.2293V15.7453C19.75 18.5099 17.5081 20.7503 14.7422 20.7503H5.25778C2.49188 20.7503 0.25 18.5099 0.25 15.7453V10.2293C0.25 7.46472 2.49188 5.22434 5.25778 5.22434H5.46112ZM5.4609 6.72434V8.30504C5.4609 8.71925 5.79669 9.05504 6.2109 9.05504C6.62511 9.05504 6.9609 8.71925 6.9609 8.30504V6.72434H13.0229V8.30504C13.0229 8.71925 13.3587 9.05504 13.7729 9.05504C14.1871 9.05504 14.5229 8.71925 14.5229 8.30504V6.72434H14.7422C16.6805 6.72434 18.25 8.29395 18.25 10.2293V15.7453C18.25 17.6807 16.6805 19.2503 14.7422 19.2503H5.25778C3.31951 19.2503 1.75 17.6807 1.75 15.7453V10.2293C1.75 8.29395 3.31951 6.72434 5.25778 6.72434H5.4609ZM13.0225 5.22434H6.96124C6.98711 3.5711 8.33917 2.24287 9.99766 2.25003L10.0009 2.25004C11.6533 2.25004 12.9965 3.57689 13.0225 5.22434Z" fill="#200E32"/>
</svg>
