<svg width="18" height="21" viewBox="0 0 18 21" fill="none" xmlns="http://www.w3.org/2000/svg">
<path fill-rule="evenodd" clip-rule="evenodd" d="M3.02878 2.26593C2.4407 2.71638 2.04698 3.4375 2.04698 4.62247V19.0125C2.04825 19.0531 2.05793 19.0929 2.07537 19.1295C2.13974 19.2336 2.27306 19.2722 2.38335 19.218L8.30891 15.9717C8.75129 15.7328 9.28431 15.7328 9.72669 15.9718L9.72885 15.9729L15.6864 19.2167C15.728 19.237 15.7734 19.2484 15.8197 19.25C15.8785 19.2486 15.9346 19.2246 15.9764 19.1829C16.0194 19.1398 16.0435 19.0815 16.0435 19.0206V4.4394C16.0435 3.33307 15.6472 2.65802 15.0499 2.22967C14.4116 1.77202 13.4469 1.52808 12.2169 1.52808H5.87364C4.60684 1.52808 3.65191 1.78865 3.02878 2.26593ZM2.11667 1.07512C3.10681 0.316706 4.44021 0.0280762 5.87364 0.0280762H12.2169C13.6047 0.0280762 14.9283 0.296716 15.924 1.01069C16.9605 1.75397 17.5435 2.90958 17.5435 4.4394V19.0206C17.5435 19.4793 17.3613 19.9192 17.037 20.2435C16.7127 20.5678 16.2728 20.75 15.8141 20.75H15.8022C15.5215 20.7456 15.2456 20.6765 14.9958 20.5483L14.9795 20.5397L9.01782 17.2937L3.0944 20.5388L3.07991 20.5465C2.24705 20.9794 1.22098 20.673 0.761833 19.8543C0.758333 19.8481 0.754922 19.8418 0.751602 19.8355C0.62178 19.5876 0.551741 19.3129 0.547083 19.0331L0.546875 19.0206L0.546979 4.62247C0.546979 3.06144 1.09148 1.86037 2.11667 1.07512ZM4.62021 7.3227C4.62021 6.90849 4.95599 6.5727 5.37021 6.5727H12.6654C13.0796 6.5727 13.4154 6.90849 13.4154 7.3227C13.4154 7.73691 13.0796 8.0727 12.6654 8.0727H5.37021C4.95599 8.0727 4.62021 7.73691 4.62021 7.3227Z" fill="#200E32"/>
</svg>
