<svg width="22" height="22" viewBox="0 0 22 22" fill="none" xmlns="http://www.w3.org/2000/svg">
<path fill-rule="evenodd" clip-rule="evenodd" d="M1.88354 2.05377C2.96018 0.898836 4.49524 0.25 6.31429 0.25H15.6857C17.509 0.25 19.0445 0.898535 20.1204 2.05412C21.1906 3.20365 21.75 4.79384 21.75 6.58516V15.4148C21.75 17.2062 21.1906 18.7964 20.1204 19.9459C19.0445 21.1015 17.509 21.75 15.6857 21.75H6.31429C4.49096 21.75 2.9555 21.1015 1.87964 19.9459C0.809425 18.7964 0.25 17.2062 0.25 15.4148V6.58516C0.25 4.79292 0.812353 3.20285 1.88354 2.05377ZM2.98074 3.07659C2.21146 3.90181 1.75 5.10432 1.75 6.58516V15.4148C1.75 16.8966 2.20962 18.099 2.9775 18.9238C3.73974 19.7425 4.86142 20.25 6.31429 20.25H15.6857C17.1386 20.25 18.2603 19.7425 19.0225 18.9238C19.7904 18.099 20.25 16.8966 20.25 15.4148V6.58516C20.25 5.1034 19.7904 3.90101 19.0225 3.07623C18.2603 2.25751 17.1386 1.75 15.6857 1.75H6.31429C4.86666 1.75 3.74458 2.25721 2.98074 3.07659ZM11.0381 5.16912C11.4523 5.16912 11.7881 5.50491 11.7881 5.91912V16.0618C11.7881 16.4761 11.4523 16.8118 11.0381 16.8118C10.6239 16.8118 10.2881 16.4761 10.2881 16.0618V5.91912C10.2881 5.50491 10.6239 5.16912 11.0381 5.16912ZM6.37143 8.45171C6.78564 8.45171 7.12143 8.7875 7.12143 9.20171V16.0618C7.12143 16.4761 6.78564 16.8118 6.37143 16.8118C5.95721 16.8118 5.62143 16.4761 5.62143 16.0618V9.20171C5.62143 8.7875 5.95721 8.45171 6.37143 8.45171ZM15.6286 12.0768C16.0428 12.0768 16.3786 12.4126 16.3786 12.8268V16.0618C16.3786 16.4761 16.0428 16.8118 15.6286 16.8118C15.2144 16.8118 14.8786 16.4761 14.8786 16.0618V12.8268C14.8786 12.4126 15.2144 12.0768 15.6286 12.0768Z" fill="#200E32"/>
</svg>
