<svg width="22" height="22" viewBox="0 0 22 22" fill="none" xmlns="http://www.w3.org/2000/svg">
<path fill-rule="evenodd" clip-rule="evenodd" d="M0.25 11.015C0.25 5.35805 4.77012 0.25 11.02 0.25C17.1318 0.25 21.75 5.25953 21.75 10.985C21.75 17.6354 16.3149 21.75 11 21.75C9.23998 21.75 7.28603 21.2792 5.69925 20.3442L5.68905 20.3382C5.16236 20.0165 5.01265 19.9882 4.8236 20.0502L4.80352 20.0565L2.7883 20.655C2.29608 20.8072 1.77274 20.7014 1.4042 20.3617C1.0256 20.0127 0.881497 19.4824 1.02728 18.9568L1.03137 18.9426L1.70137 16.6992C1.70489 16.6874 1.70871 16.6757 1.71281 16.6641C1.75975 16.5312 1.73452 16.4426 1.71032 16.4031C1.70361 16.3921 1.69718 16.381 1.69103 16.3697C0.780497 14.6943 0.25 12.8406 0.25 11.015ZM11.02 1.75C5.64988 1.75 1.75 6.13419 1.75 11.015C1.75 12.5496 2.19665 14.1538 3.00125 15.6392C3.28202 16.1118 3.29759 16.665 3.13397 17.1441L2.52983 19.167L4.36742 18.6212C5.2699 18.3307 5.97462 18.7549 6.46572 19.0548C7.79816 19.8385 9.48191 20.25 11 20.25C15.6051 20.25 20.25 16.6931 20.25 10.985C20.25 6.05244 16.2682 1.75 11.02 1.75ZM6.69524 10.8056C6.46389 10.8056 6.27667 10.9944 6.27667 11.2223C6.27667 11.4528 6.46469 11.6409 6.69524 11.6409C6.92579 11.6409 7.11381 11.4528 7.11381 11.2223C7.11381 10.9944 6.92658 10.8056 6.69524 10.8056ZM4.77667 11.2223C4.77667 10.1644 5.63706 9.30562 6.69524 9.30562C7.75342 9.30562 8.61381 10.1644 8.61381 11.2223C8.61381 12.2813 7.75421 13.1409 6.69524 13.1409C5.63626 13.1409 4.77667 12.2813 4.77667 11.2223ZM11.2381 10.8056C11.0068 10.8056 10.8195 10.9944 10.8195 11.2223C10.8195 11.4528 11.0075 11.6409 11.2381 11.6409C11.4686 11.6409 11.6567 11.4528 11.6567 11.2223C11.6567 10.9944 11.4694 10.8056 11.2381 10.8056ZM9.31952 11.2223C9.31952 10.1644 10.1799 9.30562 11.2381 9.30562C12.2963 9.30562 13.1567 10.1644 13.1567 11.2223C13.1567 12.2813 12.2971 13.1409 11.2381 13.1409C10.1791 13.1409 9.31952 12.2813 9.31952 11.2223ZM13.8625 11.2223C13.8625 10.1644 14.7229 9.30562 15.781 9.30562C16.8392 9.30562 17.6996 10.1644 17.6996 11.2223C17.6996 12.2813 16.84 13.1409 15.781 13.1409C14.7221 13.1409 13.8625 12.2813 13.8625 11.2223ZM15.781 10.8056C15.5497 10.8056 15.3625 10.9944 15.3625 11.2223C15.3625 11.4528 15.5505 11.6409 15.781 11.6409C16.0116 11.6409 16.1996 11.4528 16.1996 11.2223C16.1996 10.9944 16.0124 10.8056 15.781 10.8056Z" fill="#200E32"/>
</svg>
