<svg width="18" height="21" viewBox="0 0 18 21" fill="none" xmlns="http://www.w3.org/2000/svg">
<path fill-rule="evenodd" clip-rule="evenodd" d="M1.98828 9.39266V9.40431C2.05556 11.2863 2.70657 13.1008 3.85125 14.5964L3.85604 14.6026C5.19685 16.3932 6.84222 17.9338 8.71698 19.1541C8.74551 19.1727 8.77275 19.1931 8.7985 19.2154C8.86628 19.274 8.96681 19.274 9.03458 19.2154C9.06104 19.1925 9.08907 19.1715 9.11846 19.1526C10.3761 18.3407 11.5357 17.3862 12.5742 16.3081C14.3972 14.3836 15.7952 12.0102 15.8448 9.52321V9.44353L15.8448 9.44098C15.8578 5.61461 12.7665 2.50218 8.94008 2.48918C5.11412 2.47618 2.00195 5.56686 1.98828 9.39266ZM0.488286 9.38881C0.5041 4.73401 4.29038 0.973371 8.94518 0.989185C13.5996 1.005 17.36 4.79066 17.3448 9.44493V9.53049L17.3447 9.54468C17.2875 12.5673 15.6091 15.2861 13.6609 17.342L13.6568 17.3464C12.548 18.4978 11.3111 19.5183 9.97014 20.3881C9.35512 20.8835 8.47636 20.8832 7.8617 20.3871C5.85591 19.0754 4.09471 17.4232 2.65769 15.5049C1.32234 13.7589 0.564199 11.6401 0.488723 9.44319C0.488429 9.43461 0.488281 9.42603 0.488281 9.41744L0.488286 9.38881ZM8.91654 7.82831C7.97165 7.82831 7.20567 8.59429 7.20567 9.53918C7.20567 10.4841 7.97165 11.2501 8.91654 11.2501C9.86143 11.2501 10.6274 10.4841 10.6274 9.53918C10.6274 8.59429 9.86143 7.82831 8.91654 7.82831ZM5.70567 9.53918C5.70567 7.76587 7.14323 6.32831 8.91654 6.32831C10.6899 6.32831 12.1274 7.76587 12.1274 9.53918C12.1274 11.3125 10.6899 12.7501 8.91654 12.7501C7.14323 12.7501 5.70567 11.3125 5.70567 9.53918Z" fill="#200E32"/>
</svg>
