<svg width="22" height="20" viewBox="0 0 22 20" fill="none" xmlns="http://www.w3.org/2000/svg">
<path fill-rule="evenodd" clip-rule="evenodd" d="M11.0153 1.75494C11.0044 1.74944 10.9909 1.74847 10.9793 1.75234L10.9772 1.75305C10.971 1.75508 10.9624 1.7611 10.9571 1.77196L10.9557 1.77468L8.64173 6.42968L8.64038 6.43238C8.4133 6.88462 7.98367 7.19605 7.48739 7.27461L7.47735 7.2762L2.30822 8.02269C2.28936 8.02692 2.27127 8.03462 2.25459 8.04585C2.24733 8.05867 2.24855 8.07529 2.25921 8.08718L6.02998 11.7132L6.03319 11.7163C6.39715 12.0705 6.56274 12.5834 6.4748 13.0837L5.57601 18.2048C5.57506 18.2121 5.57569 18.2188 5.57771 18.2251C5.59599 18.2489 5.62792 18.2557 5.65235 18.2442L10.2941 15.8156C10.7463 15.5725 11.2883 15.5726 11.7405 15.8157L16.3427 18.2285C16.3627 18.2374 16.384 18.2404 16.4043 18.2381C16.4212 18.2341 16.4335 18.2182 16.4326 18.2004L15.5364 13.0941C15.4408 12.5885 15.6086 12.0701 15.9817 11.7158L19.746 8.07577C19.754 8.06823 19.7549 8.05718 19.7484 8.04875C19.7392 8.03684 19.7278 8.03082 19.716 8.02925L19.7079 8.02817L14.5229 7.27913L14.5217 7.27895C14.0164 7.2051 13.5827 6.88694 13.3581 6.43284L13.3576 6.4318L11.0471 1.78393C11.04 1.77156 11.0296 1.76204 11.0185 1.75652L11.0153 1.75494ZM11.689 0.414722C11.3222 0.230373 10.8961 0.199241 10.5059 0.328993C10.1132 0.45896 9.79256 0.74213 9.61194 1.10816L9.61119 1.1097L7.29988 5.75928V5.75928C7.29122 5.7761 7.27551 5.78876 7.25517 5.79265L2.07692 6.54053C2.06894 6.54169 2.06098 6.54297 2.05304 6.54438C1.74394 6.59925 1.45922 6.74016 1.22872 6.94889C1.20915 6.96661 1.19054 6.98534 1.17296 7.005C0.597765 7.60905 0.610471 8.56368 1.20353 9.15289L4.98707 12.7913V12.7913C4.99049 12.7948 4.99409 12.8001 4.99605 12.8062C4.99811 12.8126 4.99839 12.8187 4.99745 12.824L4.09742 17.9522L4.09599 17.9606C4.04178 18.2917 4.09603 18.6319 4.25335 18.931L4.26175 18.9465C4.66863 19.6777 5.58346 19.9624 6.33434 19.5802L10.9938 17.1424L11.0041 17.1369C11.0091 17.1342 11.0134 17.1333 11.0171 17.1333C11.0208 17.1333 11.0251 17.1342 11.0302 17.1369L15.6579 19.5631L15.6741 19.5713C15.9714 19.7181 16.307 19.7706 16.6359 19.7202L16.6423 19.7191C17.4731 19.5843 18.039 18.8068 17.916 17.9769L17.9128 17.9572L17.0128 12.8292L17.0103 12.8156C17.0098 12.8131 17.0106 12.8095 17.0106 12.8095C17.0106 12.8095 17.0122 12.8058 17.0145 12.8036L20.7756 9.1667C21.3426 8.63175 21.4139 7.75451 20.9379 7.13491C20.69 6.81216 20.3253 6.59849 19.919 6.54305L14.7386 5.79472V5.79472C14.7243 5.79254 14.7102 5.78311 14.7027 5.76786L12.3857 1.10698L12.3797 1.09509C12.2273 0.801779 11.9856 0.562933 11.689 0.414722Z" fill="#200E32"/>
</svg>
