<svg width="147" height="34" viewBox="0 0 147 34" fill="none" xmlns="http://www.w3.org/2000/svg">
<g clip-path="url(#clip0_741_444)">
<path d="M31.11 21.9297L30.8833 22.213C27.03 26.0664 20.8533 26.0664 17 22.213L10.0867 29.0697L2.89 21.9297C-0.963333 18.0764 -0.963333 11.8997 2.89 8.04638L3.11667 7.76305C6.97 3.96638 13.1467 3.96638 17 7.76305C20.8533 3.90971 27.03 3.90971 30.8833 7.76305L31.11 8.04638C34.9633 11.843 34.9633 18.0764 31.11 21.9297Z" fill="#F6BE00"/>
<path d="M22.3833 16.7725C21.3633 17.7925 19.7767 17.7925 18.8133 16.7725L17 14.9592C15.98 13.9392 14.3933 13.9392 13.43 14.9592C12.41 15.9792 12.41 17.5659 13.43 18.5292L17 22.0992L10.0867 29.0692L2.89 21.9292C-0.963333 18.0759 -0.963333 11.8992 2.89 8.04587L3.17333 7.76254C6.97 3.96587 13.1467 3.96587 17 7.76254L22.3833 13.1459C23.4033 14.1659 23.4033 15.7525 22.3833 16.7725Z" fill="#F6BE00"/>
<path d="M16.9991 7.76305C20.8524 3.90971 27.0291 3.90971 30.8824 7.76305L31.1657 8.04638C35.0191 11.8997 35.0191 18.0764 31.1657 21.9297L30.8824 22.213C27.0291 26.0664 20.8524 26.0664 16.9991 22.213L13.4291 18.643C12.4091 17.623 12.4091 16.0364 13.4291 15.073C14.4491 14.053 16.0357 14.053 16.9991 15.073L18.8124 16.8864C19.8324 17.9064 21.4191 17.9064 22.3824 16.8864C23.4024 15.8664 23.4024 14.2797 22.3824 13.3164L16.9991 7.76305Z" fill="#F1F6FA"/>
</g>
<path d="M41.694 23V7.6H51.55V10.328H44.576V13.606H49.988V16.334H44.576V20.272H51.77V23H41.694ZM52.5039 23L56.1559 17.5L52.5039 12H55.7599L57.7619 15.19L59.6099 12H62.8659L59.2139 17.5L62.8659 23H59.6099L57.6079 19.81L55.7599 23H52.5039ZM64.1465 28.324V12H66.3465L66.8745 13.826L66.0605 13.54C66.5665 13.0193 67.1165 12.605 67.7105 12.297C68.3045 11.9817 69.0305 11.824 69.8885 11.824C70.9665 11.824 71.8722 12.0843 72.6055 12.605C73.3389 13.1257 73.8925 13.8187 74.2665 14.684C74.6479 15.5493 74.8385 16.4953 74.8385 17.522C74.8385 18.5487 74.6479 19.4947 74.2665 20.36C73.8925 21.2253 73.3389 21.9183 72.6055 22.439C71.8722 22.9597 70.9665 23.22 69.8885 23.22C69.0305 23.22 68.3339 23.1027 67.7985 22.868C67.2632 22.6333 66.7205 22.2593 66.1705 21.746L66.8745 21.196V28.324H64.1465ZM69.4705 20.976C70.2845 20.976 70.9152 20.657 71.3625 20.019C71.8172 19.3737 72.0445 18.5413 72.0445 17.522C72.0445 16.4953 71.8172 15.663 71.3625 15.025C70.9152 14.387 70.2845 14.068 69.4705 14.068C68.8399 14.068 68.3229 14.2147 67.9195 14.508C67.5162 14.8013 67.2192 15.2083 67.0285 15.729C66.8379 16.2423 66.7425 16.84 66.7425 17.522C66.7425 18.204 66.8379 18.8053 67.0285 19.326C67.2192 19.8393 67.5162 20.2427 67.9195 20.536C68.3229 20.8293 68.8399 20.976 69.4705 20.976ZM81.8184 23.22C80.4911 23.22 79.3837 22.956 78.4964 22.428C77.6164 21.8927 76.9564 21.1887 76.5164 20.316C76.0764 19.436 75.8564 18.4753 75.8564 17.434C75.8564 16.4293 76.0617 15.5017 76.4724 14.651C76.8904 13.8003 77.4991 13.1183 78.2984 12.605C79.0977 12.0843 80.0731 11.824 81.2244 11.824C82.2804 11.824 83.1604 12.0403 83.8644 12.473C84.5684 12.9057 85.0964 13.485 85.4484 14.211C85.8004 14.9297 85.9764 15.7253 85.9764 16.598C85.9764 16.84 85.9617 17.0857 85.9324 17.335C85.9031 17.577 85.8591 17.83 85.8004 18.094H78.6944C78.7971 18.776 79.0097 19.3297 79.3324 19.755C79.6624 20.173 80.0621 20.481 80.5314 20.679C81.0081 20.877 81.5177 20.976 82.0604 20.976C82.6984 20.976 83.2924 20.8953 83.8424 20.734C84.3924 20.5653 84.8984 20.3453 85.3604 20.074L85.4924 22.384C85.0744 22.604 84.5537 22.7983 83.9304 22.967C83.3071 23.1357 82.6031 23.22 81.8184 23.22ZM78.7604 16.246H83.2044C83.2044 15.916 83.1421 15.586 83.0174 15.256C82.8927 14.9187 82.6837 14.6363 82.3904 14.409C82.1044 14.1817 81.7157 14.068 81.2244 14.068C80.5204 14.068 79.9667 14.2733 79.5634 14.684C79.1601 15.0947 78.8924 15.6153 78.7604 16.246ZM87.6187 23V12H90.1707L90.2367 13.166C90.5153 12.858 90.9077 12.55 91.4137 12.242C91.9197 11.934 92.4733 11.78 93.0747 11.78C93.2507 11.78 93.412 11.7947 93.5587 11.824L93.3607 14.508C93.1993 14.464 93.038 14.4347 92.8767 14.42C92.7227 14.4053 92.5687 14.398 92.4147 14.398C91.9527 14.398 91.531 14.5043 91.1497 14.717C90.7683 14.9297 90.5007 15.19 90.3467 15.498V23H87.6187ZM98.2464 23.22C97.557 23.22 96.996 23.0807 96.5634 22.802C96.1307 22.516 95.8117 22.153 95.6064 21.713C95.401 21.273 95.2984 20.8147 95.2984 20.338V14.244H93.7364L93.9784 12H95.2984V9.58L98.0264 9.294V12H100.446V14.244H98.0264V19.216C98.0264 19.7733 98.0594 20.1767 98.1254 20.426C98.1914 20.668 98.3417 20.822 98.5764 20.888C98.811 20.9467 99.185 20.976 99.6984 20.976H100.446L100.204 23.22H98.2464ZM102.185 23V7.6H105.001V20.492H111.337V23H102.185ZM114.923 23.22C114.336 23.22 113.801 23.0917 113.317 22.835C112.833 22.571 112.448 22.1933 112.162 21.702C111.876 21.2107 111.733 20.6167 111.733 19.92C111.733 19.2967 111.876 18.765 112.162 18.325C112.455 17.8777 112.836 17.5073 113.306 17.214C113.782 16.9133 114.296 16.6787 114.846 16.51C115.403 16.334 115.949 16.2057 116.485 16.125C117.027 16.0443 117.504 15.9967 117.915 15.982C117.885 15.3513 117.724 14.893 117.431 14.607C117.137 14.321 116.639 14.178 115.935 14.178C115.443 14.178 114.963 14.2477 114.494 14.387C114.032 14.519 113.507 14.728 112.921 15.014L112.679 12.792C113.339 12.4693 113.999 12.2273 114.659 12.066C115.326 11.9047 116.001 11.824 116.683 11.824C117.504 11.824 118.212 11.9707 118.806 12.264C119.4 12.5573 119.858 13.0303 120.181 13.683C120.503 14.3283 120.665 15.1827 120.665 16.246V19.216C120.665 19.766 120.69 20.1657 120.742 20.415C120.793 20.657 120.888 20.811 121.028 20.877C121.167 20.943 121.369 20.976 121.633 20.976H121.985L121.743 23.22H120.753C120.342 23.22 119.975 23.165 119.653 23.055C119.337 22.9523 119.066 22.8057 118.839 22.615C118.611 22.4243 118.428 22.2007 118.289 21.944C117.929 22.3473 117.442 22.6627 116.826 22.89C116.217 23.11 115.583 23.22 114.923 23.22ZM116.067 21.13C116.309 21.13 116.609 21.0677 116.969 20.943C117.328 20.811 117.651 20.6093 117.937 20.338V17.83C117.423 17.852 116.91 17.9363 116.397 18.083C115.883 18.2297 115.454 18.446 115.11 18.732C114.765 19.018 114.593 19.3773 114.593 19.81C114.593 20.2573 114.71 20.591 114.945 20.811C115.179 21.0237 115.553 21.13 116.067 21.13ZM123.284 23V12H125.836L125.946 14.046L125.308 13.21C125.726 12.858 126.224 12.539 126.804 12.253C127.383 11.967 128.058 11.824 128.828 11.824C130.236 11.824 131.281 12.2933 131.963 13.232C132.645 14.1633 132.986 15.3733 132.986 16.862V23H130.258V17.082C130.258 16.0553 130.085 15.2963 129.741 14.805C129.403 14.3137 128.85 14.068 128.08 14.068C127.456 14.068 126.947 14.222 126.551 14.53C126.155 14.8307 125.806 15.234 125.506 15.74L126.012 14.398V23H123.284ZM139.646 23.22C138.532 23.22 137.593 22.9597 136.83 22.439C136.075 21.9183 135.503 21.2253 135.114 20.36C134.733 19.4947 134.542 18.5487 134.542 17.522C134.542 16.4953 134.733 15.5493 135.114 14.684C135.503 13.8187 136.075 13.1257 136.83 12.605C137.593 12.0843 138.532 11.824 139.646 11.824C140.453 11.824 141.135 11.9597 141.692 12.231C142.25 12.495 142.741 12.836 143.166 13.254L142.506 13.826V6.5H145.234V23H142.66L142.528 21.13L143.32 21.702C142.807 22.1713 142.275 22.5417 141.725 22.813C141.175 23.0843 140.482 23.22 139.646 23.22ZM140.042 20.976C140.644 20.976 141.135 20.8293 141.516 20.536C141.898 20.2427 142.18 19.8393 142.363 19.326C142.547 18.8053 142.638 18.204 142.638 17.522C142.638 16.84 142.547 16.2423 142.363 15.729C142.18 15.2083 141.898 14.8013 141.516 14.508C141.135 14.2147 140.644 14.068 140.042 14.068C139.47 14.068 138.983 14.2147 138.579 14.508C138.176 14.8013 137.868 15.2083 137.655 15.729C137.443 16.2423 137.336 16.84 137.336 17.522C137.336 18.204 137.443 18.8053 137.655 19.326C137.868 19.8393 138.176 20.2427 138.579 20.536C138.983 20.8293 139.47 20.976 140.042 20.976Z" fill="#F1F6FA"/>
<defs>
<clipPath id="clip0_741_444">
<rect width="34" height="34" fill="white"/>
</clipPath>
</defs>
</svg>
