<?xml version="1.0" encoding="utf-8"?><svg viewBox="0 0 448 512" xmlns="http://www.w3.org/2000/svg" xmlns:xlink="http://www.w3.org/1999/xlink"><style>:root>svg{display:none}:root>svg:target{display:block}</style><svg fill="none" viewBox="0 0 18 18" id="chat" xmlns="http://www.w3.org/2000/svg"><path d="M16.5 8.583a6.982 6.982 0 01-.75 3.167 7.084 7.084 0 01-6.333 3.917 6.983 6.983 0 01-3.167-.75L1.5 16.5l1.583-4.75a6.983 6.983 0 01-.75-3.167A7.083 7.083 0 016.25 2.25a6.983 6.983 0 013.167-.75h.416A7.066 7.066 0 0116.5 8.167v.416z" fill="#F1F6FA" stroke="#053FFA" stroke-width="1.5" stroke-linecap="round" stroke-linejoin="round"/></svg><svg fill="none" viewBox="0 0 20 20" id="close" xmlns="http://www.w3.org/2000/svg"><path d="M12.396 7.594l-4.792 4.792M12.396 12.389L7.6 7.592" stroke="currentColor" stroke-width="1.5" stroke-linecap="round" stroke-linejoin="round"/><path clip-rule="evenodd" d="M14.334.75H5.665C2.644.75.75 2.889.75 5.916v8.168c0 3.027 1.885 5.166 4.915 5.166h8.668c3.031 0 4.917-2.139 4.917-5.166V5.916c0-3.027-1.886-5.166-4.916-5.166z" stroke="currentColor" stroke-width="1.5" stroke-linecap="round" stroke-linejoin="round"/></svg><svg fill="none" viewBox="0 0 10 11" id="close2" xmlns="http://www.w3.org/2000/svg"><path d="M7.915 3.171l-.587-.587-2.33 2.33-2.328-2.33-.588.587 2.33 2.33-2.33 2.329.588.587 2.329-2.329 2.329 2.33.587-.588L5.586 5.5l2.33-2.329z" fill="#3C64B1"/></svg><svg fill="none" viewBox="0 0 8 8" id="company-close" xmlns="http://www.w3.org/2000/svg"><path d="M6.397 1.595L1.605 6.387M6.398 6.39L1.602 1.593" stroke="#200E32" stroke-width="1.5" stroke-linecap="round" stroke-linejoin="round"/></svg><svg fill="none" viewBox="0 0 44 21" id="detail" xmlns="http://www.w3.org/2000/svg"><path d="M0 9.8h41.609L31.716.935 32.598 0 44 10.461 32.598 21l-.883-.934 9.895-8.944H0V9.8z" fill="#2B5CFB"/></svg><svg fill="none" viewBox="0 0 14 14" id="dislike" xmlns="http://www.w3.org/2000/svg"><path d="M12.922 0h-2.524a.221.221 0 00-.162.063.213.213 0 00-.064.16v.508C7.588.728 4.074.726 2.298.73c-.68.001-1.243.518-1.243 1.15v.021c.003.281.113.55.308.754-.472.163-.806.586-.806 1.083.005.306.136.598.364.807-.4.19-.668.58-.668 1.027v.021c-.001.318.136.621.376.833C.256 6.624 0 6.999 0 7.427c0 .634.552 1.15 1.232 1.151l3.924.004-.076 2.678v.01a1.874 1.874 0 001.65 1.818l.528.08a.24.24 0 00.184-.047c.052-.041.084-.101.09-.166l.219-2.834a1.921 1.921 0 01.832-1.44l.259-.166c.419-.272.944-.611 1.33-1v.809c0 .13.095.245.226.245h2.525a.255.255 0 00.248-.245v-8.1c0-.13-.117-.224-.248-.224zM8.58 8.125c-.092.06-.182.116-.261.17a2.385 2.385 0 00-1.04 1.79l-.201 2.582-.278-.042-.007-.001a1.412 1.412 0 01-1.238-1.357l.082-2.912a.232.232 0 00-.067-.17.24.24 0 00-.17-.07L1.23 8.11c-.418 0-.76-.3-.76-.677 0-.377.342-.677.76-.677h1.89a.236.236 0 00.237-.234.236.236 0 00-.238-.234H1.442c-.404-.03-.714-.328-.714-.695v-.021c0-.377.327-.688.746-.688h1.49a.236.236 0 00.238-.234.236.236 0 00-.237-.234h-1.17c-.419 0-.76-.31-.76-.688 0-.377.341-.686.76-.686H2.9a.236.236 0 00.237-.234.236.236 0 00-.237-.234H2.3c-.419 0-.771-.296-.771-.673v-.02c0-.376.35-.682.769-.683 1.775-.004 5.29-.002 7.873 0v5.533c-.238.515-1.02 1.022-1.592 1.394zm4.116-.024h-2.05V.468h2.05v7.633z" fill="currentColor"/></svg><svg fill="none" viewBox="0 0 14 14" id="dislike-active" xmlns="http://www.w3.org/2000/svg"><path d="M12.922 0h-2.524a.221.221 0 00-.162.063.213.213 0 00-.064.16v.508C7.588.728 4.074.726 2.298.73c-.68.001-1.243.518-1.243 1.15v.021c.003.281.113.55.308.754-.472.163-.806.586-.806 1.083.005.306.136.598.364.807-.4.19-.668.58-.668 1.027v.021c-.001.318.136.621.376.833C.256 6.624 0 6.999 0 7.427c0 .634.552 1.15 1.232 1.151l3.924.004-.076 2.678v.01a1.874 1.874 0 001.65 1.818l.528.08a.24.24 0 00.184-.047c.052-.041.084-.101.09-.166l.219-2.834a1.921 1.921 0 01.832-1.44l.259-.166c.419-.272.944-.611 1.33-1v.809c0 .13.095.245.226.245h2.525a.255.255 0 00.248-.245v-8.1c0-.13-.117-.224-.248-.224z" fill="#2B5CFB"/><path d="M12.922 0h-2.524a.221.221 0 00-.162.063.213.213 0 00-.064.16v.508C7.588.728 4.074.726 2.298.73c-.68.001-1.243.518-1.243 1.15v.021c.003.281.113.55.308.754-.472.163-.806.586-.806 1.083.005.306.136.598.364.807-.4.19-.668.58-.668 1.027v.021c-.001.318.136.621.376.833C.256 6.624 0 6.999 0 7.427c0 .634.552 1.15 1.232 1.151l3.924.004-.076 2.678v.01a1.874 1.874 0 001.65 1.818l.528.08a.24.24 0 00.184-.047c.052-.041.084-.101.09-.166l.219-2.834a1.921 1.921 0 01.832-1.44l.259-.166c.419-.272.944-.611 1.33-1v.809c0 .13.095.245.226.245h2.525a.255.255 0 00.248-.245v-8.1c0-.13-.117-.224-.248-.224zM8.58 8.125c-.092.06-.182.116-.261.17a2.385 2.385 0 00-1.04 1.79l-.201 2.582-.278-.042-.007-.001a1.412 1.412 0 01-1.238-1.357l.082-2.912a.232.232 0 00-.067-.17.24.24 0 00-.17-.07L1.23 8.11c-.418 0-.76-.3-.76-.677 0-.377.342-.677.76-.677h1.89a.236.236 0 00.237-.234.236.236 0 00-.238-.234H1.442c-.404-.03-.714-.328-.714-.695v-.021c0-.377.327-.688.746-.688h1.49a.236.236 0 00.238-.234.236.236 0 00-.237-.234h-1.17c-.419 0-.76-.31-.76-.688 0-.377.341-.686.76-.686H2.9a.236.236 0 00.237-.234.236.236 0 00-.237-.234H2.3c-.419 0-.771-.296-.771-.673v-.02c0-.376.35-.682.769-.683 1.775-.004 5.29-.002 7.873 0v5.533c-.238.515-1.02 1.022-1.592 1.394zm4.116-.024h-2.05V.468h2.05v7.633z" fill="#000"/></svg><svg fill="none" viewBox="0 0 24 14" id="doublecheck" xmlns="http://www.w3.org/2000/svg"><path d="M.41 8.41L6 14l1.41-1.42L1.83 7 .41 8.41zM22.24.58L11.66 11.17 7.5 7 6.07 8.41 11.66 14l12-12L22.24.58zM18 2L16.59.58l-6.35 6.35 1.42 1.41L18 2z" fill="#3C64B1" fill-opacity=".5"/></svg><svg fill="none" viewBox="0 0 24 24" id="edit" xmlns="http://www.w3.org/2000/svg"><path d="M16 2.012l3 3-2.287 2.287-3-3L16 2.011zM4 14v3h3l8.299-8.287-3-3L4 14zm0 6h16v2H4v-2z" fill="#092C9E"/></svg><svg aria-hidden="true" data-prefix="fab" data-icon="facebook-f" class="ajsvg-inline--fa ajfa-facebook-f ajfa-w-10" viewBox="0 0 320 512" id="fb" xmlns="http://www.w3.org/2000/svg"><path fill="currentColor" d="M279.14 288l14.22-92.66h-88.91v-60.13c0-25.35 12.42-50.06 52.24-50.06h40.42V6.26S260.43 0 225.36 0c-73.22 0-121.08 44.38-121.08 124.72v70.62H22.89V288h81.39v224h100.17V288z"/></svg><svg aria-hidden="true" data-prefix="fab" data-icon="instagram" class="aksvg-inline--fa akfa-instagram akfa-w-14" viewBox="0 0 448 512" id="inst" xmlns="http://www.w3.org/2000/svg"><path fill="currentColor" d="M224.1 141c-63.6 0-114.9 51.3-114.9 114.9s51.3 114.9 114.9 114.9S339 319.5 339 255.9 287.7 141 224.1 141zm0 189.6c-41.1 0-74.7-33.5-74.7-74.7s33.5-74.7 74.7-74.7 74.7 33.5 74.7 74.7-33.6 74.7-74.7 74.7zm146.4-194.3c0 14.9-12 26.8-26.8 26.8-14.9 0-26.8-12-26.8-26.8s12-26.8 26.8-26.8 26.8 12 26.8 26.8zm76.1 27.2c-1.7-35.9-9.9-67.7-36.2-93.9-26.2-26.2-58-34.4-93.9-36.2-37-2.1-147.9-2.1-184.9 0-35.8 1.7-67.6 9.9-93.9 36.1s-34.4 58-36.2 93.9c-2.1 37-2.1 147.9 0 184.9 1.7 35.9 9.9 67.7 36.2 93.9s58 34.4 93.9 36.2c37 2.1 147.9 2.1 184.9 0 35.9-1.7 67.7-9.9 93.9-36.2 26.2-26.2 34.4-58 36.2-93.9 2.1-37 2.1-147.8 0-184.8zM398.8 388c-7.8 19.6-22.9 34.7-42.6 42.6-29.5 11.7-99.5 9-132.1 9s-102.7 2.6-132.1-9c-19.6-7.8-34.7-22.9-42.6-42.6-11.7-29.5-9-99.5-9-132.1s-2.6-102.7 9-132.1c7.8-19.6 22.9-34.7 42.6-42.6 29.5-11.7 99.5-9 132.1-9s102.7-2.6 132.1 9c19.6 7.8 34.7 22.9 42.6 42.6 11.7 29.5 9 99.5 9 132.1s2.7 102.7-9 132.1z"/></svg><svg fill="none" viewBox="0 0 14 14" id="like" xmlns="http://www.w3.org/2000/svg"><path d="M12.21 1.294C11.56.459 10.66 0 9.673 0c-1.388 0-2.267.938-2.76 1.725a5.89 5.89 0 00-.327.602 5.889 5.889 0 00-.328-.602C5.765.938 4.886 0 3.498 0 2.513 0 1.612.46.962 1.294.341 2.09 0 3.156 0 4.295 0 5.536.428 6.69 1.347 7.927c.82 1.105 2.002 2.244 3.37 3.564.51.491 1.036 1 1.598 1.555l.016.017a.36.36 0 00.255.108.36.36 0 00.254-.108l.017-.017c.56-.555 1.088-1.064 1.598-1.555 1.367-1.32 2.549-2.46 3.37-3.564.918-1.237 1.346-2.391 1.346-3.632 0-1.14-.341-2.205-.96-3.001zm-4.256 9.532c-.44.423-.892.86-1.368 1.329-.477-.47-.93-.905-1.369-1.33C2.54 8.245.772 6.539.772 4.296c0-.926.273-1.787.768-2.424.501-.643 1.197-.997 1.959-.997 1.058 0 1.742.737 2.129 1.356.348.555.529 1.115.59 1.33.052.18.2.301.368.301.167 0 .315-.121.366-.301.062-.215.244-.775.591-1.33.388-.619 1.072-1.356 2.13-1.356.762 0 1.457.354 1.958.997.496.637.768 1.498.768 2.424 0 2.243-1.768 3.949-4.445 6.53z" fill="currentColor"/></svg><svg fill="none" viewBox="0 0 14 14" id="like(old)" xmlns="http://www.w3.org/2000/svg"><path d="M12.21 1.294C11.56.459 10.66 0 9.673 0c-1.388 0-2.267.938-2.76 1.725a5.89 5.89 0 00-.327.602 5.889 5.889 0 00-.328-.602C5.765.938 4.886 0 3.498 0 2.513 0 1.612.46.962 1.294.341 2.09 0 3.156 0 4.295 0 5.536.428 6.69 1.347 7.927c.82 1.105 2.002 2.244 3.37 3.564.51.491 1.036 1 1.598 1.555l.016.017a.36.36 0 00.255.108.36.36 0 00.254-.108l.017-.017c.56-.555 1.088-1.064 1.598-1.555 1.367-1.32 2.549-2.46 3.37-3.564.918-1.237 1.346-2.391 1.346-3.632 0-1.14-.341-2.205-.96-3.001zm-4.256 9.532c-.44.423-.892.86-1.368 1.329-.477-.47-.93-.905-1.369-1.33C2.54 8.245.772 6.539.772 4.296c0-.926.273-1.787.768-2.424.501-.643 1.197-.997 1.959-.997 1.058 0 1.742.737 2.129 1.356.348.555.529 1.115.59 1.33.052.18.2.301.368.301.167 0 .315-.121.366-.301.062-.215.244-.775.591-1.33.388-.619 1.072-1.356 2.13-1.356.762 0 1.457.354 1.958.997.496.637.768 1.498.768 2.424 0 2.243-1.768 3.949-4.445 6.53z" fill="currentColor"/></svg><svg fill="none" viewBox="0 0 14 14" id="like-active" xmlns="http://www.w3.org/2000/svg"><path d="M12.21 1.294C11.56.459 10.66 0 9.673 0c-1.388 0-2.267.938-2.76 1.725a5.89 5.89 0 00-.327.602 5.889 5.889 0 00-.328-.602C5.765.938 4.886 0 3.498 0 2.513 0 1.612.46.962 1.294.341 2.09 0 3.156 0 4.295 0 5.536.428 6.69 1.347 7.927c.82 1.105 2.002 2.244 3.37 3.564.51.491 1.036 1 1.598 1.555l.016.017a.36.36 0 00.255.108.36.36 0 00.254-.108l.017-.017c.56-.555 1.088-1.064 1.598-1.555 1.367-1.32 2.549-2.46 3.37-3.564.918-1.237 1.346-2.391 1.346-3.632 0-1.14-.341-2.205-.96-3.001z" fill="#2B5CFB"/><path d="M12.21 1.294C11.56.459 10.66 0 9.673 0c-1.388 0-2.267.938-2.76 1.725a5.89 5.89 0 00-.327.602 5.889 5.889 0 00-.328-.602C5.765.938 4.886 0 3.498 0 2.513 0 1.612.46.962 1.294.341 2.09 0 3.156 0 4.295 0 5.536.428 6.69 1.347 7.927c.82 1.105 2.002 2.244 3.37 3.564.51.491 1.036 1 1.598 1.555l.016.017a.36.36 0 00.255.108.36.36 0 00.254-.108l.017-.017c.56-.555 1.088-1.064 1.598-1.555 1.367-1.32 2.549-2.46 3.37-3.564.918-1.237 1.346-2.391 1.346-3.632 0-1.14-.341-2.205-.96-3.001zm-4.256 9.532c-.44.423-.892.86-1.368 1.329-.477-.47-.93-.905-1.369-1.33C2.54 8.245.772 6.539.772 4.296c0-.926.273-1.787.768-2.424.501-.643 1.197-.997 1.959-.997 1.058 0 1.742.737 2.129 1.356.348.555.529 1.115.59 1.33.052.18.2.301.368.301.167 0 .315-.121.366-.301.062-.215.244-.775.591-1.33.388-.619 1.072-1.356 2.13-1.356.762 0 1.457.354 1.958.997.496.637.768 1.498.768 2.424 0 2.243-1.768 3.949-4.445 6.53z" fill="#000"/></svg><svg aria-hidden="true" data-prefix="fab" data-icon="linkedin-in" class="aosvg-inline--fa aofa-linkedin-in aofa-w-14" viewBox="0 0 448 512" id="linkedin" xmlns="http://www.w3.org/2000/svg"><path fill="currentColor" d="M100.28 448H7.4V148.9h92.88zM53.79 108.1C24.09 108.1 0 83.5 0 53.8a53.79 53.79 0 01107.58 0c0 29.7-24.1 54.3-53.79 54.3zM447.9 448h-92.68V302.4c0-34.7-.7-79.2-48.29-79.2-48.29 0-55.69 37.7-55.69 76.7V448h-92.78V148.9h89.08v40.8h1.3c12.4-23.5 42.69-48.3 87.88-48.3 94 0 111.28 61.9 111.28 142.3V448z"/></svg><svg fill="none" viewBox="0 0 14 20" id="location" xmlns="http://www.w3.org/2000/svg"><path d="M7 9.5a2.5 2.5 0 110-5 2.5 2.5 0 010 5zM7 0a7 7 0 00-7 7c0 5.25 7 13 7 13s7-7.75 7-13a7 7 0 00-7-7z" fill="#3C64B1" fill-opacity=".5"/></svg><svg fill="none" viewBox="0 0 20 20" id="mess" xmlns="http://www.w3.org/2000/svg"><path d="M17.5 9.583a6.983 6.983 0 01-.75 3.167 7.084 7.084 0 01-6.333 3.917 6.983 6.983 0 01-3.167-.75L2.5 17.5l1.583-4.75a6.983 6.983 0 01-.75-3.167A7.083 7.083 0 017.25 3.25a6.983 6.983 0 013.167-.75h.416A7.066 7.066 0 0117.5 9.167v.416z" fill="#F1F6FA" stroke="#092C9E" stroke-width="1.5" stroke-linecap="round" stroke-linejoin="round"/></svg><svg fill="none" viewBox="0 0 18 18" id="mess-active" xmlns="http://www.w3.org/2000/svg"><path d="M16.5 8.583a6.982 6.982 0 01-.75 3.167 7.084 7.084 0 01-6.333 3.917 6.983 6.983 0 01-3.167-.75L1.5 16.5l1.583-4.75a6.983 6.983 0 01-.75-3.167A7.083 7.083 0 016.25 2.25a6.983 6.983 0 013.167-.75h.416A7.066 7.066 0 0116.5 8.167v.416z" fill="#092C9E" stroke="#092C9E" stroke-width="1.5" stroke-linecap="round" stroke-linejoin="round"/></svg><svg fill="none" viewBox="0 0 20 20" id="notific" xmlns="http://www.w3.org/2000/svg"><path d="M15 6.666a5 5 0 00-10 0c0 5.833-2.5 7.5-2.5 7.5h15s-2.5-1.667-2.5-7.5zM11.442 17.5a1.666 1.666 0 01-2.883 0" stroke="#092C9E" stroke-width="1.5" stroke-linecap="round" stroke-linejoin="round"/></svg><svg fill="none" viewBox="0 0 18 18" id="search" xmlns="http://www.w3.org/2000/svg"><path d="M12.5 11h-.79l-.28-.27A6.471 6.471 0 0013 6.5 6.5 6.5 0 106.5 13c1.61 0 3.09-.59 4.23-1.57l.27.28v.79l5 4.99L17.49 16l-4.99-5zm-6 0C4.01 11 2 8.99 2 6.5S4.01 2 6.5 2 11 4.01 11 6.5 8.99 11 6.5 11z" fill="currentColor"/></svg><svg fill="none" viewBox="0 0 20 20" id="settings" xmlns="http://www.w3.org/2000/svg"><path d="M16.165 12.5a1.374 1.374 0 00.275 1.517l.05.05a1.667 1.667 0 11-2.358 2.359l-.05-.05a1.376 1.376 0 00-1.517-.275 1.376 1.376 0 00-.833 1.258v.142a1.667 1.667 0 01-3.333 0v-.075a1.375 1.375 0 00-.9-1.259 1.375 1.375 0 00-1.517.275l-.05.05a1.667 1.667 0 11-2.358-2.358l.05-.05a1.375 1.375 0 00.275-1.517 1.374 1.374 0 00-1.259-.833H2.5a1.667 1.667 0 110-3.333h.075a1.375 1.375 0 001.258-.9 1.375 1.375 0 00-.275-1.517l-.05-.05a1.667 1.667 0 112.358-2.358l.05.05a1.375 1.375 0 001.517.275h.067a1.375 1.375 0 00.833-1.259v-.141a1.667 1.667 0 013.333 0v.075a1.374 1.374 0 00.834 1.258 1.375 1.375 0 001.516-.275l.05-.05a1.667 1.667 0 112.359 2.358l-.05.05a1.375 1.375 0 00-.275 1.517v.067a1.375 1.375 0 001.258.833h.142a1.667 1.667 0 010 3.333h-.075a1.375 1.375 0 00-1.259.834v0z" stroke="#092C9E" stroke-width="1.5" stroke-linecap="round" stroke-linejoin="round"/><path d="M10 12.5a2.5 2.5 0 100-5 2.5 2.5 0 000 5z" fill="#F4F7FF" stroke="#092C9E" stroke-width="1.5" stroke-linecap="round" stroke-linejoin="round"/></svg><svg fill="none" viewBox="0 0 20 19" id="star-active" xmlns="http://www.w3.org/2000/svg"><path d="M10 15.27L16.18 19l-1.64-7.03L20 7.24l-7.19-.61L10 0 7.19 6.63 0 7.24l5.46 4.73L3.82 19 10 15.27z" fill="#092C9E"/></svg><svg fill="none" viewBox="0 0 20 19" id="star-half" xmlns="http://www.w3.org/2000/svg"><path d="M20 7.24l-7.19-.62L10 0 7.19 6.63 0 7.24l5.46 4.73L3.82 19 10 15.27 16.18 19l-1.63-7.03L20 7.24zM10 13.4V4.1l1.71 4.04 4.38.38-3.32 2.88 1 4.28L10 13.4z" fill="#092C9E"/></svg><svg fill="none" viewBox="0 0 20 19" id="star-notactive" xmlns="http://www.w3.org/2000/svg"><path d="M20 7.24l-7.19-.62L10 0 7.19 6.63 0 7.24l5.46 4.73L3.82 19 10 15.27 16.18 19l-1.63-7.03L20 7.24zM10 13.4l-3.76 2.27 1-4.28-3.32-2.88 4.38-.38L10 4.1l1.71 4.04 4.38.38-3.32 2.88 1 4.28L10 13.4z" fill="#092C9E"/></svg><svg fill="none" viewBox="0 0 20 19" id="star-white" xmlns="http://www.w3.org/2000/svg"><path d="M10 15.27L16.18 19l-1.64-7.03L20 7.24l-7.19-.61L10 0 7.19 6.63 0 7.24l5.46 4.73L3.82 19 10 15.27z" fill="#F1F6FA"/></svg><svg fill="none" viewBox="0 0 404 316" id="thumbnail" xmlns="http://www.w3.org/2000/svg"><g opacity=".5" stroke="#18A0FB" stroke-width="1.5" stroke-linecap="round" stroke-linejoin="round"><path d="M319.833 39.5H84.167C65.573 39.5 50.5 51.29 50.5 65.833v184.334c0 14.543 15.073 26.333 33.667 26.333h235.666c18.594 0 33.667-11.79 33.667-26.333V65.833c0-14.543-15.073-26.333-33.667-26.333z"/><path d="M143.084 131.666c13.945 0 25.25-8.842 25.25-19.75s-11.305-19.75-25.25-19.75-25.25 8.842-25.25 19.75 11.305 19.75 25.25 19.75zM353.499 197.499l-84.166-65.833L84.166 276.499"/></g></svg><svg fill="none" viewBox="0 0 16 10" id="v" xmlns="http://www.w3.org/2000/svg"><path d="M15 1.5l-7 7-7-7" stroke="#092C9E" stroke-width="1.5" stroke-linecap="round" stroke-linejoin="round"/></svg></svg>